SplineFontDB: 3.0
FontName: Hess
FullName: Hess
FamilyName: Hess
Weight: Regular
Copyright: Created by trashman with FontForge 2.0 (http://fontforge.sf.net)
UComments: "2010-9-25: Created." 
Version: 001.000
ItalicAngle: 0
UnderlinePosition: -100
UnderlineWidth: 50
Ascent: 750
Descent: 250
LayerCount: 3
Layer: 0 0 "Back"  1
Layer: 1 0 "Fore"  0
Layer: 2 0 "backup"  0
NeedsXUIDChange: 1
XUID: [1021 658 797806517 11115167]
OS2Version: 0
OS2_WeightWidthSlopeOnly: 0
OS2_UseTypoMetrics: 1
CreationTime: 1285454881
ModificationTime: 1288467891
OS2TypoAscent: 0
OS2TypoAOffset: 1
OS2TypoDescent: 0
OS2TypoDOffset: 1
OS2TypoLinegap: 0
OS2WinAscent: 0
OS2WinAOffset: 1
OS2WinDescent: 0
OS2WinDOffset: 1
HheadAscent: 0
HheadAOffset: 1
HheadDescent: 0
HheadDOffset: 1
OS2Vendor: 'PfEd'
MarkAttachClasses: 1
DEI: 91125
Encoding: UnicodeBmp
UnicodeInterp: none
NameList: Adobe Glyph List
DisplaySize: -48
AntiAlias: 1
FitToEm: 1
WinInfo: 60 12 5
BeginPrivate: 9
BlueValues 31 [-21 1 445 467 660 684 690 710]
OtherBlues 11 [-224 -212]
BlueScale 8 0.039625
BlueShift 1 7
BlueFuzz 1 0
StdVW 4 [84]
StemSnapV 11 [84 94 104]
StdHW 4 [46]
StemSnapH 7 [46 53]
EndPrivate
BeginChars: 65536 110

StartChar: a
Encoding: 97 97 0
Width: 478
VWidth: 0
Flags: HW
HStem: -12 70<351.5 429.905> -12 52<140.43 249.862> 418 42<178.433 287.983>
VStem: 22 101<57.5281 157.376> 45 92<321.237 377.769> 308 84<100.934 224.999 259.001 399.712>
LayerCount: 3
Fore
SplineSet
303 225 m 0x74
 290 225 237 207 212 197 c 0
 158 175 123 152 123 106 c 0
 123 68 152 40 187 40 c 0
 265 40 308 99 308 210 c 0
 308 223 306 225 303 225 c 0x74
418 58 m 0xac
 432 58 445 66 453 70 c 0
 458 73 466 56 466 47 c 0
 466 36 446 18 422 5 c 0
 409 -2 392 -12 375 -12 c 0xac
 328 -12 316 31 314 51 c 0
 313 58 308 56 302 50 c 0
 285 30 241 -12 157 -12 c 0
 89 -12 22 31 22 112 c 0x74
 22 158 48 193 92 209 c 0
 144 228 240 251 286 259 c 0
 308 263 308 262 308 282 c 2
 308 348 l 2
 308 384 282 418 242 418 c 0
 184 418 145 381 137 323 c 0
 136 313 134 291 124 291 c 0
 109 291 74 308 53 321 c 0
 45 326 45 334 45 342 c 0
 45 409 157 460 262 460 c 0
 333 460 370 431 387 388 c 0
 396 367 396 333 396 320 c 0
 396 270 392 198 392 168 c 2
 392 102 l 2
 392 65 404 58 418 58 c 0xac
EndSplineSet
Layer: 2
SplineSet
303 225 m 0x74
 290 225 237 207 212 197 c 0
 158 175 123 152 123 106 c 0
 123 68 152 40 187 40 c 0
 265 40 308 99 308 210 c 0
 308 223 306 225 303 225 c 0x74
418 59 m 0xac
 427 59 435 62 441 65 c 0
 445 67 450 69 454 69 c 0
 458 69 466 56 466 47 c 0
 466 36 446 18 422 5 c 0
 409 -2 392 -12 375 -12 c 0xac
 324 -12 314 29 312 49 c 0
 311 56 308 56 302 50 c 0
 285 30 241 -12 157 -12 c 0
 89 -12 22 31 22 112 c 0x74
 22 158 48 193 92 209 c 0
 144 228 240 251 286 259 c 0
 308 263 308 262 308 282 c 2
 308 348 l 2
 308 384 282 418 242 418 c 0
 184 418 145 381 137 323 c 0
 136 313 134 291 124 291 c 0
 109 291 74 308 53 321 c 0
 45 326 45 334 45 342 c 0
 45 409 157 460 262 460 c 0
 333 460 370 431 387 388 c 0
 396 367 396 333 396 320 c 0
 396 270 392 198 392 168 c 2
 392 102 l 2
 392 65 402 59 418 59 c 0xac
EndSplineSet
EndChar

StartChar: b
Encoding: 98 98 1
Width: 530
VWidth: 0
Flags: W
HStem: -12 48<209.772 357.797> 389 71<230.24 347.602> 683 20G<111.5 160.5>
VStem: 60 43<-24.3062 46.4844> 76 98<431.507 623.463> 78 84<80.1406 349.791 386.007 583.435> 425 77<135.04 305.228>
LayerCount: 3
Fore
SplineSet
190 409 m 0xe6
 213 431 253 460 316 460 c 0
 415 460 502 392 502 241 c 0
 502 107 405 -12 282 -12 c 0
 179 -12 139 47 126 47 c 0
 120 47 110 31 103 14 c 0xf2
 95 -5 90 -25 78 -25 c 0xe6
 64 -25 60 -17 60 -4 c 0xf2
 60 7 68 40 71 68 c 0
 76 114 78 144 78 184 c 0xe6
 78 496 77 510 76 587 c 0
 76 618 50 627 29 633 c 0
 20 635 12 640 12 649 c 0
 12 656 15 663 25 665 c 0
 54 670 66 666 157 703 c 1
 164 701 170 699 174 693 c 1xea
 166 600 162 501 162 420 c 0
 162 395 162 386 166 386 c 0
 170 386 177 396 190 409 c 0xe6
162 304 m 2xe6
 162 143 l 2
 162 77 220 36 285 36 c 0
 375 36 425 111 425 218 c 0
 425 308 361 389 273 389 c 0
 218 389 162 347 162 304 c 2xe6
EndSplineSet
EndChar

StartChar: c
Encoding: 99 99 2
Width: 436
VWidth: 0
Flags: W
HStem: -12 68<191.163 326.66> 410 50<183.998 317.312>
VStem: 26 85<147.05 307.816>
LayerCount: 3
Fore
SplineSet
248 410 m 0
 171 410 111 344 111 246 c 0
 111 182 141 56 270 56 c 0
 355 56 388 109 396 109 c 0
 401 109 414 101 414 88 c 0
 414 79 352 -12 228 -12 c 0
 92 -12 26 97 26 211 c 0
 26 345 136 460 295 460 c 0
 335 460 400 444 400 409 c 0
 400 400 395 372 386 333 c 0
 384 324 378 316 369 316 c 0
 361 316 356 323 354 331 c 0
 337 384 304 410 248 410 c 0
EndSplineSet
EndChar

StartChar: d
Encoding: 100 100 3
Width: 528
VWidth: 0
Flags: W
HStem: -20 21G<374 390.5> -12 79<179.703 288.327> 416 44<172.838 321.006> 683 20G<384.5 433.5>
VStem: 18 80<156.795 315.252> 359 84<100.008 379.086 445.538 618.049>
LayerCount: 3
Fore
SplineSet
443 184 m 0x7c
 443 159 443 130 448 103 c 0
 455 68 478 67 498 58 c 0
 503 56 506 53 506 47 c 0
 506 38 505 35 498 33 c 0
 462 21 403 -8 378 -20 c 1xbc
 370 -18 366 -15 363 -9 c 1
 363 47 l 2
 363 63 362 74 358 74 c 0
 350 74 307 -12 208 -12 c 0
 85 -12 18 97 18 210 c 0
 18 343 114 460 252 460 c 0
 279 460 313 455 336 446 c 0
 349 441 355 438 355 454 c 0
 355 484 355 510 354 587 c 0
 354 618 323 627 302 633 c 0
 293 635 285 640 285 649 c 0
 285 656 288 663 298 665 c 0
 327 670 339 666 430 703 c 1
 437 701 443 699 447 693 c 1
 443 497 443 365 443 184 c 0x7c
247 416 m 0
 156 416 98 340 98 251 c 0
 98 150 164 67 248 67 c 0x7c
 303 67 359 86 359 168 c 2
 359 317 l 2
 359 387 301 416 247 416 c 0
EndSplineSet
EndChar

StartChar: e
Encoding: 101 101 4
Width: 436
VWidth: 0
Flags: W
HStem: -12 64<200.129 328.523> 419 41<183.024 294.267>
VStem: 24 88<148.487 312.39> 333 77<312.787 378.467>
LayerCount: 3
Fore
SplineSet
246 419 m 0
 168 419 114 338 114 260 c 1
 114 260 115 259 117 259 c 0
 141 259 333 313 333 324 c 0
 333 361 294 419 246 419 c 0
24 211 m 0
 24 346 126 460 259 460 c 0
 358 460 410 386 410 310 c 0
 410 305 409 297 407 294 c 0
 407 293 392 279 391 279 c 0
 283 257 112 228 112 226 c 0
 112 191 144 52 280 52 c 0
 344 52 383 92 393 92 c 0
 398 92 408 83 408 75 c 0
 408 66 348 -12 223 -12 c 0
 95 -12 24 99 24 211 c 0
EndSplineSet
Layer: 2
SplineSet
248 419 m 4
 170 419 116 338 116 260 c 5
 116 260 117 259 119 259 c 4
 143 259 335 313 335 324 c 4
 335 361 296 419 248 419 c 4
26 211 m 4
 26 346 128 460 261 460 c 4
 360 460 412 386 412 310 c 4
 412 305 411 297 409 294 c 4
 409 293 394 279 393 279 c 4
 285 257 114 228 114 226 c 4
 114 191 146 52 282 52 c 4
 346 52 385 92 395 92 c 4
 400 92 410 83 410 75 c 4
 410 69 396 52 372 34 c 4
 341 11 296 -12 225 -12 c 4
 97 -12 26 99 26 211 c 4
EndSplineSet
EndChar

StartChar: f
Encoding: 102 102 5
Width: 298
VWidth: 0
Flags: W
HStem: -1 21G<43 59 224 238> 402 43<9 85.0092 170 284> 652 44<209.539 303.849>
VStem: 86 84<39.8761 402 445 578.917> 324 39<578.866 629.331>
LayerCount: 3
Fore
SplineSet
170 388 m 2
 170 160 l 2
 170 118 171 71 179 51 c 0
 189 27 253 35 253 14 c 0
 253 1 243 -1 233 -1 c 0
 215 -1 165 1 128 1 c 0
 94 1 70 -1 48 -1 c 0
 38 -1 28 1 28 14 c 0
 28 35 66 25 77 50 c 0
 86 71 86 139 86 184 c 2
 86 388 l 2
 86 402 85 402 70 402 c 2
 25 402 l 2
 15 402 9 404 9 412 c 2
 9 433 l 2
 9 441 15 445 26 445 c 2
 75 445 l 2
 85 445 85 448 85 459 c 0
 85 595 158 696 278 696 c 0
 298 696 332 694 350 682 c 0
 362 674 363 667 363 657 c 0
 363 645 357 596 352 578 c 0
 350 572 344 570 338 570 c 0
 331 570 325 575 324 583 c 0
 317 624 296 652 253 652 c 0
 221 652 197 625 184 588 c 0
 171 550 170 502 170 458 c 0
 170 446 170 445 182 445 c 2
 269 445 l 2
 281 445 284 444 284 433 c 2
 284 413 l 2
 284 402 277 402 268 402 c 2
 184 402 l 2
 170 402 170 402 170 388 c 2
EndSplineSet
Layer: 2
SplineSet
170 184 m 6
 170 151 170 108 173 78 c 4
 176 56 177 45 195 38 c 4
 217 30 253 29 253 14 c 4
 253 1 243 -1 233 -1 c 4
 215 -1 165 1 128 1 c 4
 94 1 70 -1 48 -1 c 4
 38 -1 28 1 28 14 c 4
 28 35 66 25 77 50 c 4
 86 71 86 139 86 184 c 6
 86 388 l 6
 86 402 85 402 70 402 c 6
 25 402 l 6
 15 402 9 404 9 412 c 6
 9 433 l 6
 9 441 15 445 26 445 c 6
 75 445 l 6
 85 445 85 448 85 459 c 4
 85 595 158 696 278 696 c 4
 298 696 332 694 350 682 c 4
 362 674 363 667 363 657 c 4
 363 645 357 596 352 578 c 4
 350 572 344 570 338 570 c 4
 331 570 325 575 324 583 c 4
 317 624 296 652 253 652 c 4
 221 652 197 625 184 588 c 4
 171 550 170 502 170 458 c 4
 170 446 170 445 182 445 c 6
 269 445 l 6
 281 445 284 444 284 433 c 6
 284 413 l 6
 284 402 277 402 268 402 c 6
 184 402 l 6
 170 402 170 402 170 388 c 6
 170 184 l 6
170 184 m 2
 170 138 170 75 179 50 c 0
 187 28 253 35 253 14 c 0
 253 1 243 -1 233 -1 c 0
 215 -1 165 1 128 1 c 0
 94 1 70 -1 48 -1 c 0
 38 -1 28 1 28 14 c 0
 28 35 66 25 77 50 c 0
 86 71 86 139 86 184 c 2
 86 388 l 2
 86 402 85 402 70 402 c 2
 25 402 l 2
 15 402 9 404 9 412 c 2
 9 433 l 2
 9 441 15 445 26 445 c 2
 75 445 l 2
 85 445 85 448 85 459 c 0
 85 595 158 696 278 696 c 0
 298 696 332 694 350 682 c 0
 362 674 363 667 363 657 c 0
 363 645 357 596 352 578 c 0
 350 572 344 570 338 570 c 0
 331 570 325 575 324 583 c 0
 317 624 296 652 253 652 c 0
 221 652 197 625 184 588 c 0
 171 550 170 502 170 458 c 0
 170 446 170 445 182 445 c 2
 269 445 l 2
 281 445 284 444 284 433 c 2
 284 413 l 2
 284 402 277 402 268 402 c 2
 184 402 l 2
 170 402 170 402 170 388 c 2
 170 184 l 2
EndSplineSet
EndChar

StartChar: g
Encoding: 103 103 6
Width: 467
VWidth: 0
Flags: W
HStem: -224 47<123.988 305.315> -18 83<121.067 349.291> 143 34<165.857 272.969> 416 87<377.133 437.651> 424 36<161.949 273.957>
VStem: 15 73<-143.994 -52.6552> 38 83<222.39 381.128> 48 69<38 109.453> 316 81<226.925 381.739> 371 66<-121.73 -40.6353>
LayerCount: 3
Fore
SplineSet
222 460 m 0xea
 288 460 320 442 328 442 c 0
 354 442 364 465 381 487 c 0
 389 498 400 503 411 503 c 0
 428 503 445 489 445 464 c 0
 445 429 417 416 389 416 c 0
 377 416 362 416 362 405 c 0
 362 396 397 367 397 306 c 0
 397 191 290 143 210 143 c 0
 197 143 179 146 174 146 c 0
 150 146 117 118 117 101 c 0xf180
 117 69 165 65 199 65 c 2
 290 65 l 2
 361 65 437 49 437 -47 c 0
 437 -159 311 -224 182 -224 c 0
 121 -224 15 -190 15 -103 c 0xf440
 15 -32 112 -14 112 -8 c 0
 112 -6 48 18 48 58 c 0xf1
 48 118 132 155 132 159 c 0
 132 161 38 188 38 306 c 0
 38 395 118 460 222 460 c 0xea
88 -94 m 0xe440
 88 -146 142 -177 204 -177 c 0
 246 -177 285 -169 318 -152 c 0
 349 -136 371 -112 371 -85 c 0
 371 -22 301 -18 245 -18 c 2
 172 -18 l 2
 109 -18 88 -58 88 -94 c 0xe440
219 424 m 0xea80
 146 424 121 362 121 302 c 0
 121 242 154 177 214 177 c 0
 299 177 316 244 316 308 c 0
 316 366 287 424 219 424 c 0xea80
EndSplineSet
EndChar

StartChar: h
Encoding: 104 104 7
Width: 546
VWidth: 0
Flags: W
HStem: -1 21G<49 65 200 214 345 361 496 510> 397 63<263.925 359.609> 683 20G<118.5 167.5>
VStem: 87 84<37.34 348.943 373.004 620.139> 388 84<36.7812 368.791>
LayerCount: 3
Fore
SplineSet
472 325 m 2
 472 184 l 2
 472 138 472 75 481 50 c 0
 489 28 525 35 525 14 c 0
 525 1 515 -1 505 -1 c 0
 487 -1 458 1 430 1 c 0
 396 1 372 -1 350 -1 c 0
 340 -1 330 1 330 14 c 0
 330 35 368 25 379 50 c 0
 388 71 388 139 388 184 c 0
 388 211 388 251 387 280 c 0
 386 299 387 317 383 333 c 0
 374 372 349 397 300 397 c 0
 266 397 211 376 186 341 c 0
 175 326 172 305 172 280 c 0
 171 249 171 213 171 184 c 0
 171 138 171 75 180 50 c 0
 188 28 229 35 229 14 c 0
 229 1 219 -1 209 -1 c 0
 191 -1 166 1 129 1 c 0
 95 1 76 -1 54 -1 c 0
 44 -1 34 1 34 14 c 0
 34 35 67 25 78 50 c 0
 87 71 87 139 87 184 c 2
 87 416 l 2
 87 468 87 546 85 587 c 0
 83 618 57 627 36 633 c 0
 27 635 19 640 19 649 c 0
 19 656 22 663 32 665 c 0
 61 670 73 666 164 703 c 1
 171 701 177 699 181 693 c 1
 174 625 171 569 171 498 c 2
 171 392 l 2
 171 379 171 373 174 373 c 0
 176 373 181 378 189 386 c 0
 215 410 275 460 349 460 c 0
 446 460 472 393 472 325 c 2
EndSplineSet
EndChar

StartChar: i
Encoding: 105 105 8
Width: 251
VWidth: 0
Flags: W
HStem: -1 21G<33 49 199 213> 447 20G<136 157> 555 114<90.1711 177.829>
VStem: 77 114<568.171 655.829> 81 84<38.5448 382.157>
LayerCount: 3
Fore
SplineSet
77 612 m 0xf0
 77 643 103 669 134 669 c 0
 165 669 191 643 191 612 c 0
 191 581 165 555 134 555 c 0
 103 555 77 581 77 612 c 0xf0
55 385 m 0
 47 390 33 396 26 400 c 0
 21 403 19 406 19 412 c 0
 19 420 24 424 30 425 c 0
 85 434 117 446 155 467 c 1
 159 466 164 463 167 460 c 1
 165 370 165 276 165 184 c 0
 165 138 165 69 174 50 c 0
 184 29 228 35 228 14 c 0
 228 1 218 -1 208 -1 c 0
 190 -1 160 1 123 1 c 0
 89 1 60 -1 38 -1 c 0
 28 -1 18 1 18 14 c 0
 18 35 61 25 72 50 c 0
 81 71 81 139 81 184 c 0xe8
 81 266 80 310 78 349 c 0
 77 371 76 372 55 385 c 0
EndSplineSet
Layer: 2
SplineSet
77 612 m 4xf0
 77 643 103 669 134 669 c 4
 165 669 191 643 191 612 c 4
 191 581 165 555 134 555 c 4
 103 555 77 581 77 612 c 4xf0
55 385 m 4
 47 390 33 396 26 400 c 4
 21 403 19 406 19 412 c 4
 19 420 24 424 30 425 c 4
 85 434 117 446 155 467 c 5
 159 466 164 463 167 460 c 5
 165 370 165 276 165 184 c 4
 165 138 165 75 174 50 c 4
 182 28 228 35 228 14 c 4
 228 1 218 -1 208 -1 c 4
 190 -1 160 1 123 1 c 4
 89 1 60 -1 38 -1 c 4
 28 -1 18 1 18 14 c 4
 18 35 61 25 72 50 c 4
 81 71 81 139 81 184 c 4xe8
 81 266 80 310 78 349 c 4
 77 371 76 372 55 385 c 4
EndSplineSet
EndChar

StartChar: j
Encoding: 106 106 9
Width: 251
VWidth: 0
Flags: W
HStem: -224 68<-29.6376 66.1018> 447 20G<156 177> 555 114<98.1711 185.829>
VStem: 85 114<568.171 655.829> 101 84<-98.0368 385.735>
LayerCount: 3
Fore
SplineSet
85 612 m 0xf0
 85 643 111 669 142 669 c 0
 173 669 199 643 199 612 c 0
 199 581 173 555 142 555 c 0
 111 555 85 581 85 612 c 0xf0
101 184 m 2xe8
 101 266 100 310 99 349 c 0
 98 387 70 391 42 398 c 0
 37 399 29 403 29 412 c 0
 29 420 34 425 40 426 c 0
 95 435 137 446 175 467 c 1
 179 466 184 463 187 460 c 1
 186 382 185 331 185 184 c 2
 185 31 l 2
 185 -53 182 -103 97 -178 c 0
 62 -209 36 -224 -6 -224 c 0
 -52 -224 -88 -199 -88 -168 c 0
 -88 -161 -87 -153 -81 -145 c 0
 -70 -130 -53 -112 -33 -112 c 0
 -21 -112 -15 -126 -5 -137 c 0
 3 -147 17 -156 30 -156 c 0
 62 -156 79 -131 91 -99 c 0
 100 -75 101 -18 101 16 c 2
 101 184 l 2xe8
EndSplineSet
EndChar

StartChar: k
Encoding: 107 107 10
Width: 542
VWidth: 0
Flags: W
HStem: -1 22G<44 60 210 224 385.5 516.5> 435 20G<299 313 468 484> 683 20G<116.5 165.5>
VStem: 87 84<38.0469 213.21 262.875 617.196>
DStem2: 187 258 181 205 0.795432 0.606043<68.1812 190.294>
LayerCount: 3
Fore
SplineSet
425 396 m 4
 371 361 305 302 277 277 c 0
 271 271 268 268 268 264 c 0
 268 260 270 256 276 250 c 0
 306 216 387 130 447 76 c 0
 468 58 488 45 506 36 c 0
 514 32 528 27 528 16 c 0
 528 7 521 0 512 0 c 2
 397 0 l 2
 374 0 364 30 341 58 c 0
 301 109 245 171 207 209 c 0
 204 212 200 214 197 214 c 0
 192 214 187 210 181 205 c 0
 174 200 171 195 171 183 c 0
 171 137 171 75 180 50 c 0
 188 28 239 35 239 14 c 0
 239 1 229 -1 219 -1 c 0
 201 -1 166 1 129 1 c 0
 95 1 71 -1 49 -1 c 0
 39 -1 29 1 29 14 c 0
 29 35 67 25 78 50 c 0
 87 71 87 139 87 184 c 2
 87 416 l 2
 87 468 85 546 83 587 c 0
 81 618 55 627 34 633 c 0
 25 635 17 640 17 649 c 0
 17 656 20 663 30 665 c 0
 59 670 71 666 162 703 c 1
 169 701 175 699 179 693 c 1
 172 625 171 569 171 498 c 2
 171 264 l 2
 171 245 175 248 187 258 c 0
 218 284 250 310 276 334 c 0
 300 356 327 381 327 400 c 4
 327 428 284 418 284 440 c 4
 284 453 294 455 304 455 c 4
 322 455 352 453 389 453 c 4
 423 453 457 455 479 455 c 4
 489 455 499 453 499 440 c 4
 499 425 473 424 454 413 c 4
 443 407 434 402 425 396 c 4
EndSplineSet
Layer: 2
SplineSet
425 396 m 4
 371 361 305 302 277 277 c 4
 271 271 268 268 268 264 c 4
 268 260 270 256 276 250 c 4
 306 216 387 130 447 76 c 4
 468 58 488 45 506 36 c 4
 514 32 528 27 528 16 c 4
 528 7 521 0 512 0 c 6
 397 0 l 6
 374 0 364 30 341 58 c 4
 301 109 245 171 207 209 c 4
 204 212 200 214 197 214 c 4
 192 214 187 210 181 205 c 4
 174 200 171 195 171 183 c 4
 171 137 171 75 180 50 c 4
 188 28 239 35 239 14 c 4
 239 1 229 -1 219 -1 c 4
 201 -1 166 1 129 1 c 4
 95 1 71 -1 49 -1 c 4
 39 -1 29 1 29 14 c 4
 29 35 67 25 78 50 c 4
 87 71 87 139 87 184 c 6
 87 416 l 6
 87 468 85 546 83 587 c 4
 81 618 55 627 34 633 c 4
 25 635 17 640 17 649 c 4
 17 656 20 663 30 665 c 4
 59 670 71 666 162 703 c 5
 169 701 175 699 179 693 c 5
 172 625 171 569 171 498 c 6
 171 264 l 6
 171 245 175 248 187 258 c 4
 218 284 250 310 276 334 c 4
 300 356 327 381 327 400 c 4
 327 409 321 418 304 423 c 4
 293 426 284 430 284 440 c 4
 284 453 294 455 304 455 c 4
 322 455 352 453 389 453 c 4
 423 453 457 455 479 455 c 4
 489 455 499 453 499 440 c 4
 499 432 493 428 485 425 c 4
 462 419 443 408 425 396 c 4
EndSplineSet
EndChar

StartChar: l
Encoding: 108 108 11
Width: 246
VWidth: 0
Flags: W
HStem: -1 21G<34 50 210 224> 683 20G<116.5 165.5>
VStem: 87 84<38.0469 617.196>
LayerCount: 3
Fore
SplineSet
78 50 m 0
 87 71 87 139 87 184 c 2
 87 416 l 2
 87 468 85 546 83 587 c 0
 81.4892578125 617.962890625 55 627 34 633 c 0
 25 635 17 640 17 649 c 0
 17 656 20 663 30 665 c 0
 59 670 71 666 162 703 c 1
 169 701 175 699 179 693 c 1
 172 625 171 569 171 498 c 2
 171 184 l 2
 171 138 171 75 180 50 c 0
 188 28 239 35 239 14 c 0
 239 1 229 -1 219 -1 c 0
 201 -1 166 1 129 1 c 0
 95 1 61 -1 39 -1 c 0
 29 -1 19 1 19 14 c 0
 19 35 67 25 78 50 c 0
EndSplineSet
EndChar

StartChar: m
Encoding: 109 109 12
Width: 813
VWidth: 0
Flags: W
HStem: -1 21G<33 49 189 203 324 340 480 494 615 631 766 780> 397 63<251.002 345.298 543.096 634.793> 447 20G<130 151>
VStem: 76 84<37.34 351.388 373.012 390.51> 367 84<37.34 351.388> 658 84<36.7812 373.094>
CounterMasks: 1 1c
LayerCount: 3
Fore
SplineSet
161 280 m 0xdc
 160 249 160 213 160 184 c 0
 160 138 160 75 169 50 c 0
 177 28 218 35 218 14 c 0
 218 1 208 -1 198 -1 c 0
 180 -1 155 1 118 1 c 0
 84 1 60 -1 38 -1 c 0
 28 -1 18 1 18 14 c 0
 18 35 56 25 67 50 c 0
 76 71 76 139 76 184 c 0
 76 243 76 305 75 365 c 0
 75 386 50 393 31 398 c 0
 26 399 18 403 18 412 c 0
 18 420 23 425 29 426 c 0
 84 435 111 446 149 467 c 1xbc
 153 466 158 463 161 460 c 1
 160 402 l 2
 160 389 159 373 163 373 c 0
 170 373 241 460 332 460 c 0
 433 460 445 370 449 370 c 0
 459 370 526 460 629 460 c 0
 730 460 742 389 742 325 c 2
 742 184 l 2
 742 138 742 75 751 50 c 0
 759 28 795 35 795 14 c 0
 795 1 785 -1 775 -1 c 0
 757 -1 728 1 700 1 c 0
 666 1 642 -1 620 -1 c 0
 610 -1 600 1 600 14 c 0
 600 35 638 25 649 50 c 0
 658 71 658 139 658 184 c 0
 658 211 658 251 657 280 c 0
 655 337 653 397 580 397 c 0
 520 397 472 368 457 322 c 0
 453 309 452 295 452 280 c 0
 451 252 451 213 451 184 c 0
 451 138 451 75 460 50 c 0
 468 28 509 35 509 14 c 0
 509 1 499 -1 489 -1 c 0
 471 -1 446 1 409 1 c 0
 375 1 351 -1 329 -1 c 0
 319 -1 309 1 309 14 c 0
 309 35 347 25 358 50 c 0
 367 71 367 139 367 184 c 0
 367 211 367 251 366 280 c 0
 364 348 359 397 289 397 c 0
 229 397 181 368 166 322 c 0
 162 309 161 295 161 280 c 0xdc
EndSplineSet
Layer: 2
SplineSet
157 280 m 4
 156 249 156 213 156 184 c 4
 156 138 156 75 165 50 c 4
 173 28 214 35 214 14 c 4
 214 1 204 -1 194 -1 c 4
 176 -1 151 1 114 1 c 4
 80 1 56 -1 34 -1 c 4
 24 -1 14 1 14 14 c 4
 14 35 52 25 63 50 c 4
 72 71 72 139 72 184 c 4
 72 243 72 305 71 365 c 4
 71 386 46 393 27 398 c 4
 22 399 14 403 14 412 c 4
 14 420 19 425 25 426 c 4
 40 429 64 433 84 439 c 4
 98 443 131 459 145 467 c 5
 149 466 154 463 157 460 c 5
 156 402 l 6
 156 389 155 373 159 373 c 4
 166 373 237 460 328 460 c 4
 429 460 441 370 445 370 c 4
 455 370 522 460 625 460 c 4
 726 460 738 389 738 325 c 6
 738 184 l 6
 738 138 738 75 747 50 c 4
 755 28 791 35 791 14 c 4
 791 1 781 -1 771 -1 c 4
 753 -1 724 1 696 1 c 4
 662 1 638 -1 616 -1 c 4
 606 -1 596 1 596 14 c 4
 596 35 634 25 645 50 c 4
 654 71 654 139 654 184 c 4
 654 211 654 251 653 280 c 4
 651 337 649 397 576 397 c 4
 516 397 468 368 453 322 c 4
 449 309 448 295 448 280 c 4
 447 252 447 213 447 184 c 4
 447 138 447 75 456 50 c 4
 464 28 505 35 505 14 c 4
 505 1 495 -1 485 -1 c 4
 467 -1 442 1 405 1 c 4
 371 1 347 -1 325 -1 c 4
 315 -1 305 1 305 14 c 4
 305 35 343 25 354 50 c 4
 363 71 363 139 363 184 c 4
 363 211 363 251 362 280 c 4
 360 348 355 397 285 397 c 4
 225 397 177 368 162 322 c 4
 158 309 157 295 157 280 c 4
EndSplineSet
EndChar

StartChar: n
Encoding: 110 110 13
Width: 532
VWidth: 0
Flags: W
HStem: -1 21G<33 49 189 203 334 350 485 499> 397 63<251.907 348.609>
VStem: 76 84<37.34 351.388> 377 84<36.7812 368.791>
LayerCount: 3
Fore
SplineSet
461 325 m 2
 461 184 l 2
 461 138 461 75 470 50 c 0
 478 28 514 35 514 14 c 0
 514 1 504 -1 494 -1 c 0
 476 -1 447 1 419 1 c 0
 385 1 361 -1 339 -1 c 0
 329 -1 319 1 319 14 c 0
 319 35 357 25 368 50 c 0
 377 71 377 139 377 184 c 0
 377 211 377 251 376 280 c 0
 375 299 376 317 372 333 c 0
 363 372 338 397 289 397 c 0
 237 397 180 368 165 322 c 0
 161 309 161 295 161 280 c 0
 160 249 160 213 160 184 c 0
 160 138 160 75 169 50 c 0
 177 28 218 35 218 14 c 0
 218 1 208 -1 198 -1 c 0
 180 -1 155 1 118 1 c 0
 84 1 60 -1 38 -1 c 0
 28 -1 18 1 18 14 c 0
 18 35 56 25 67 50 c 0
 76 71 76 139 76 184 c 0
 76 243 76 295 75 355 c 0
 75 376 50 383 31 388 c 0
 26 389 18 393 18 402 c 0
 18 418 37 419 49 423 c 0
 82 435 101 443 134 463 c 2
 149 472 l 1
 153 471 158 468 161 465 c 1
 160 402 l 2
 160 389 159 373 163 373 c 0
 169 373 240 460 338 460 c 0
 435 460 461 393 461 325 c 2
EndSplineSet
EndChar

StartChar: o
Encoding: 111 111 14
Width: 486
VWidth: 0
Flags: W
HStem: -12 46<182.629 313.829> 415 45<173.234 302.445>
VStem: 18 99<122.781 335.819> 364 99<111.789 332.334>
LayerCount: 3
Fore
SplineSet
240 415 m 0
 156 415 117 338 117 261 c 0
 117 159 142 34 244 34 c 0
 353 34 364 134 364 221 c 0
 364 313 330 415 240 415 c 0
463 214 m 0
 463 78 367 -12 240 -12 c 0
 99 -12 18 101 18 235 c 0
 18 375 121 460 244 460 c 0
 374 460 463 372 463 214 c 0
EndSplineSet
EndChar

StartChar: p
Encoding: 112 112 15
Width: 530
VWidth: 0
Flags: W
HStem: -218 37<170.126 251.14> -12 48<199.168 354.645> 389 71<233.842 347.864>
VStem: 80 82<-176.407 9.99558 73.3195 353.162> 427 76<137.423 301.27>
LayerCount: 3
Fore
SplineSet
164 -15 m 2
 164 -128 l 2
 164 -152 167 -173 194 -181 c 0
 218 -188 252 -188 252 -203 c 0
 252 -216 242 -218 232 -218 c 0
 214 -218 159 -216 122 -216 c 0
 88 -216 54 -218 32 -218 c 0
 22 -218 12 -216 12 -203 c 0
 12 -182 60 -192 71 -167 c 0
 80 -146 80 -78 80 -33 c 2
 80 184 l 2
 80 211 80 251 79 280 c 0
 78 302 80 321 75 355 c 0
 72 376 44 383 25 388 c 0
 20 389 12 393 12 402 c 0
 12 418 31 419 43 423 c 0
 76 435 101 443 134 463 c 2
 149 472 l 1
 153 471 157 468 160 465 c 1
 159 441 158 417 158 393 c 0
 158 381 160 376 163 376 c 0
 168 376 178 391 190 403 c 0
 213 425 246 460 316 460 c 0
 410 460 503 392 503 241 c 0
 503 116 406 -12 276 -12 c 0
 236 -12 207 -4 190 2 c 0
 179 6 173 10 169 10 c 0
 165 10 164 4 164 -15 c 2
427 211 m 0
 427 308 364 389 273 389 c 0
 210 389 162 347 162 304 c 2
 162 149 l 2
 162 63 210 36 285 36 c 0
 365 36 427 110 427 211 c 0
EndSplineSet
EndChar

StartChar: q
Encoding: 113 113 16
Width: 528
VWidth: 0
Flags: W
HStem: -218 37<275.86 356.874> -12 79<178.345 286.926> 410 50<168.9 322.735>
VStem: 20 80<153.133 310.585> 359 84<-177.124 70.9949 96.6875 376.617>
LayerCount: 3
Fore
SplineSet
443 184 m 2
 443 159 447 -33 447 -33 c 2
 447 -78 447 -146 456 -167 c 0
 467 -192 515 -182 515 -203 c 0
 515 -216 505 -218 495 -218 c 0
 473 -218 439 -216 405 -216 c 0
 368 -216 313 -218 295 -218 c 0
 285 -218 275 -216 275 -203 c 0
 275 -188 309 -188 333 -181 c 0
 360 -173 363 -152 363 -128 c 2
 363 47 l 2
 363 64 362 71 358 71 c 0
 354 71 347 62 336 50 c 0
 313 25 273 -12 208 -12 c 0
 85 -12 20 97 20 210 c 0
 20 332 116 460 252 460 c 0
 279 460 313 455 336 446 c 0
 348 442 383 424 391 424 c 0
 410 424 418 470 438 470 c 0
 452 470 454 460 454 444 c 0
 454 439 443 372 443 303 c 2
 443 184 l 2
246 410 m 0
 155 410 100 340 100 251 c 0
 100 145 164 67 248 67 c 0
 303 67 359 84 359 158 c 2
 359 338 l 2
 359 387 281 410 246 410 c 0
EndSplineSet
EndChar

StartChar: r
Encoding: 114 114 17
Width: 377
VWidth: 0
Flags: W
HStem: -1 21G<37 53 228 242> 373 84<241.221 333.084>
VStem: 89 86<185.367 330.16> 90 84<50.7453 278.633>
LayerCount: 3
Fore
SplineSet
83 355 m 0xe0
 80 376 54 383 35 388 c 0
 30 389 22 393 22 402 c 0
 22 418 41 419 53 423 c 0
 86 435 105 443 138 463 c 2
 153 472 l 1
 157 471 159 468 162 465 c 1
 161 374 l 2
 161 362 164 357 169 357 c 0
 175 357 183 364 190 374 c 0
 208 399 244 457 292 457 c 0
 309 457 356 446 356 424 c 0
 356 420 355 415 353 409 c 2
 336 367 l 2
 333 359 326 355 320 355 c 0
 312 355 280 373 266 373 c 0
 243 373 221.518951427 358.412537588 203 337 c 0
 189.518951427 321.412537588 176 314 175 280 c 0xe0
 174 252 174 213 174 184 c 0
 174 138 174 65 183 50 c 0
 197 26 257 35 257 14 c 0
 257 1 247 -1 237 -1 c 0
 219 -1 169 1 132 1 c 0
 98 1 64 -1 42 -1 c 0
 32 -1 22 1 22 14 c 0
 22 35 70 25 81 50 c 0
 90 71 90 139 90 184 c 0xd0
 90 211 90 251 89 280 c 0
 88 302 88 321 83 355 c 0xe0
EndSplineSet
Layer: 2
SplineSet
83 355 m 4xe0
 80 376 54 383 35 388 c 4
 30 389 22 393 22 402 c 4
 22 418 41 419 53 423 c 4
 86 435 105 443 138 463 c 6
 153 472 l 5
 157 471 159 468 162 465 c 5
 161 374 l 6
 161 362 164 357 169 357 c 4
 175 357 183 364 190 374 c 4
 208 399 244 457 292 457 c 4
 309 457 356 446 356 424 c 4
 356 420 355 415 353 409 c 6
 336 367 l 6
 333 359 326 355 320 355 c 4
 312 355 280 373 266 373 c 4
 243 373 222 358 203 337 c 5
 190 321 176 314 175 280 c 4xe0
 174 252 174 213 174 184 c 4
 174 138 174 75 183 50 c 4
 191 28 257 35 257 14 c 4
 257 1 247 -1 237 -1 c 4
 219 -1 169 1 132 1 c 4
 98 1 64 -1 42 -1 c 4
 32 -1 22 1 22 14 c 4
 22 35 70 25 81 50 c 4
 90 71 90 139 90 184 c 4xd0
 90 211 90 251 89 280 c 4
 88 302 88 321 83 355 c 4xe0
EndSplineSet
EndChar

StartChar: s
Encoding: 115 115 18
Width: 378
VWidth: 0
Flags: W
HStem: -12 48<116.816 254.817> 414 46<110.217 245.319>
VStem: 31 61<319.413 396.026> 278 66<65.3505 148.736>
LayerCount: 3
Fore
SplineSet
189 460 m 0
 229 460 262 454 296 440 c 0
 306 436 309 431 310 418 c 0
 312 392 314 346 314 338 c 0
 314 331 308 327 302 327 c 0
 298 327 293 329 291 333 c 0
 279 362 256 390 226 404 c 0
 212 411 195 414 178 414 c 0
 136 414 92 395 92 357 c 0
 92 332 105 323 126 310 c 0
 194 270 344 256 344 138 c 0
 344 53 264 -12 178 -12 c 0
 134 -12 92 -1 42 26 c 0
 31 32 28 39 27 48 c 0
 23 88 17 123 17 133 c 0
 17 141 20 147 30 147 c 0
 37 147 48 132 55 120 c 0
 75 85 124 36 194 36 c 0
 241 36 278 64 278 111 c 0
 278 203 31 166 31 336 c 0
 31 419 118 460 189 460 c 0
EndSplineSet
EndChar

StartChar: t
Encoding: 116 116 19
Width: 365
VWidth: 0
Flags: W
HStem: -12 65<197.809 282.135> 395 50<180.09 328.853>
VStem: 94 84<74.3132 392.961>
LayerCount: 3
Fore
SplineSet
178 382 m 2
 178 172 l 2
 178 125 181 53 241 53 c 0
 282 53 326 90 334 90 c 0
 341 90 347 79 347 69 c 0
 347 65 346 58 341 54 c 0
 300 19 263 -12 206 -12 c 0
 168 -12 94 -4 94 135 c 2
 94 378 l 2
 94 391 93 393 82 393 c 2
 29 393 l 2
 22 393 18 399 18 408 c 0
 18 422 23 421 35 430 c 0
 58 446 78 457 101 482 c 0
 121 503 131 517 144 538 c 0
 151 550 158 564 172 564 c 0
 179 564 186 559 186 550 c 0
 186 536 180 485 180 474 c 2
 180 456 l 2
 180 445 180 445 191 445 c 2
 314 445 l 2
 328 445 329 443 329 424 c 0
 329 397 325 395 314 395 c 2
 190 395 l 2
 180 395 178 393 178 382 c 2
EndSplineSet
EndChar

StartChar: u
Encoding: 117 117 20
Width: 536
VWidth: 0
Flags: W
HStem: -20 21G<389.5 427.5> -12 71<181.394 280.825> 436 20G<137 158 438 459>
VStem: 73 84<85.6206 407.815> 374 84<112.706 403.114>
LayerCount: 3
Fore
SplineSet
374 374 m 2x78
 374 417 307 403 307 431 c 0
 307 443 316 445 326 445 c 0
 373 445 419 448 457 456 c 1
 461 455 466 452 469 449 c 1
 462 370 458 308 458 281 c 2
 458 148 l 2
 458 89 460 71 507 50 c 0
 512 48 515 45 515 39 c 0
 515 30 514 25 507 24 c 0
 451 12 462 20 393 -20 c 1xb8
 386 -20 379 -15 376 -9 c 1
 376 61 l 2
 376 71 374 75 370 75 c 0
 365 75 359 69 354 64 c 0
 328 40 267 -12 213 -12 c 0
 137 -12 74 14 73 152 c 2
 72 376 l 2
 72 419 17 412 17 431 c 0
 17 443 26 445 36 445 c 0
 83 445 118 450 156 456 c 1
 160 455 165 452 168 449 c 1
 160 364 157 309 157 281 c 2
 157 190 l 2
 157 126 160 59 237 59 c 0
 318 59 374 107 374 186 c 2
 374 374 l 2x78
EndSplineSet
EndChar

StartChar: v
Encoding: 118 118 21
Width: 527
VWidth: 0
Flags: W
HStem: -12 21G<264 274> 431 20G<29 45 195 209 349 363 478 494>
VStem: 14 159<383 442.5> 394 115<370 442.5>
LayerCount: 3
Fore
SplineSet
67 386 m 0
 56 405 51 409 28 421 c 0
 21 425 14 428 14 436 c 0
 14 449 24 451 34 451 c 0
 56 451 85 449 119 449 c 0
 156 449 186 451 204 451 c 0
 214 451 224 449 224 436 c 0
 224 412 173 425 173 387 c 0
 173 379 175 371 179 362 c 0
 219 262 282 120 288 120 c 0
 295 120 347 233 378 320 c 0
 388 348 394 359 394 381 c 0
 394 427 334 411 334 436 c 0
 334 449 344 451 354 451 c 0
 372 451 385 449 422 449 c 0
 456 449 467 451 489 451 c 0
 499 451 509 449 509 436 c 0
 509 431 505 426 502 424 c 0
 469 405 464 404 444 358 c 2
 289 0 l 2
 286 -8 279 -12 269 -12 c 0
 259 -12 252 -8 248 0 c 0
 188 144 89 348 67 386 c 0
EndSplineSet
Layer: 2
SplineSet
77 390 m 4
 66 409 61 413 38 425 c 4
 31 429 24 432 24 440 c 4
 24 453 34 455 44 455 c 4
 66 455 95 453 129 453 c 4
 166 453 196 455 214 455 c 4
 224 455 234 453 234 440 c 4
 234 416 183 429 183 391 c 4
 183 383 185 375 189 366 c 4
 229 266 292 120 298 120 c 4
 305 120 357 237 388 324 c 4
 398 352 404 363 404 385 c 4
 404 431 344 415 344 440 c 4
 344 453 354 455 364 455 c 4
 382 455 395 453 432 453 c 4
 466 453 477 455 499 455 c 4
 509 455 519 453 519 440 c 4
 519 435 515 430 512 428 c 4
 479 409 474 408 454 362 c 6
 299 0 l 6
 296 -8 289 -12 279 -12 c 4
 269 -12 262 -8 258 0 c 4
 198 144 99 352 77 390 c 4
EndSplineSet
EndChar

StartChar: w
Encoding: 119 119 22
Width: 689
VWidth: 0
Flags: W
HStem: -12 21G<229 239 462 472> 431 20G<37 53 166 180 258 274 412 426 542 556 645.5 658>
VStem: 22 132<379.5 442.5> 334 58<315.139 358.748> 575 98<363 442.5>
DStem2: 269 147 346 229 0.386616 0.922241<-25.6416 125.433>
LayerCount: 3
Fore
SplineSet
498 147 m 0
 516 193 575 347 575 379 c 0
 575 428 527 412 527 436 c 0
 527 449 537 451 547 451 c 0
 565 451 580 449 600 449 c 0
 618 449 638 451 653 451 c 0
 663 451 673 449 673 436 c 0
 673 431 669 426 666 424 c 0
 638 408 631 391 619 358 c 2
 483 0 l 2
 480 -8 477 -12 467 -12 c 0
 457 -12 455 -8 451 0 c 0
 422 69 391 155 363 229 c 0
 359 241 357 247 355 247 c 0
 353 247 351 241 346 229 c 2
 250 0 l 2
 247 -8 244 -12 234 -12 c 0
 224 -12 222 -8 218 0 c 0
 158 144 83 342 62 386 c 0
 53 406 52 408 36 419 c 0
 29 424 22 428 22 436 c 0
 22 449 32 451 42 451 c 0
 64 451 78 449 112 449 c 0
 149 449 157 451 175 451 c 0
 185 451 195 449 195 436 c 0
 195 414 154 425 154 387 c 0
 154 372 228 185 243 147 c 0
 248 133 252 125 255 125 c 0
 258 125 263 133 269 147 c 0
 284 180 310 234 330 287 c 0
 332 293 334 298 334 302 c 0
 334 308 331 313 328 322 c 0
 316 353 304 376 298 386 c 0
 287 405 273 414 257 421 c 0
 249 424 243 428 243 436 c 0
 243 449 253 451 263 451 c 0
 285 451 314 449 348 449 c 0
 385 449 403 451 421 451 c 0
 431 451 441 449 441 436 c 0
 441 414 392 422 392 386 c 0
 392 370 451 208 476 147 c 0
 482 133 484 127 487 127 c 0
 490 127 492 133 498 147 c 0
EndSplineSet
Layer: 2
SplineSet
498 147 m 4
 516 193 575 351 575 383 c 4
 575 432 527 416 527 440 c 4
 527 453 537 455 547 455 c 4
 565 455 580 453 600 453 c 4
 618 453 638 455 653 455 c 4
 663 455 673 453 673 440 c 4
 673 435 669 430 666 428 c 4
 638 412 631 395 619 362 c 6
 483 0 l 6
 480 -8 477 -12 467 -12 c 4
 457 -12 455 -8 451 0 c 4
 422 69 389 163 361 237 c 4
 357 249 354 255 352 255 c 4
 350 255 348 249 343 237 c 6
 250 0 l 6
 247 -8 244 -12 234 -12 c 4
 224 -12 222 -8 218 0 c 4
 158 144 83 346 62 390 c 4
 53 410 52 412 36 423 c 4
 29 428 22 432 22 440 c 4
 22 453 32 455 42 455 c 4
 64 455 78 453 112 453 c 4
 149 453 157 455 175 455 c 4
 185 455 195 453 195 440 c 4
 195 418 154 429 154 391 c 4
 154 376 228 185 243 147 c 4
 248 133 252 126 255 126 c 4
 258 126 262 133 268 147 c 4
 283 180 306 238 326 291 c 4
 328 297 330 302 330 306 c 4
 330 312 327 317 324 326 c 4
 312 357 303 380 297 390 c 4
 286 409 272 418 256 425 c 4
 248 428 242 432 242 440 c 4
 242 453 252 455 262 455 c 4
 284 455 313 453 347 453 c 4
 384 453 402 455 420 455 c 4
 430 455 440 453 440 440 c 4
 440 418 391 426 391 390 c 4
 391 374 451 208 476 147 c 4
 482 133 484 127 487 127 c 4
 490 127 492 133 498 147 c 4
EndSplineSet
EndChar

StartChar: x
Encoding: 120 120 23
Width: 486
VWidth: 0
Flags: W
HStem: -1 21G<33 45.5 170 184 275 289 437 453> 418 33<21.1147 65.9375>
VStem: 18 132<7.5 68> 21 168<381 442.5> 205 73<216.654 251.221> 304 164<7.5 72> 324 122<378 442.5>
LayerCount: 3
Fore
SplineSet
205 220 m 0xec
 205 227 84 381 77 390 c 0
 61 410 51 411 35 418 c 0
 27 421 21 428 21 436 c 0
 21 449 31 451 41 451 c 0
 63 451 92 449 126 449 c 0
 163 449 186 451 204 451 c 0
 214 451 224 449 224 436 c 0
 224 414 189 425 189 389 c 0
 189 373 253 280 256 280 c 0
 260 280 324 366 324 390 c 0
 324 426 280 412 280 436 c 0
 280 449 290 451 300 451 c 0
 318 451 343 449 363 449 c 0
 381 449 411 451 426 451 c 0
 436 451 446 449 446 436 c 0xda
 446 431 442 426 439 424 c 0
 411 408 407 407 392 390 c 24
 344 338 278 255 278 249 c 0
 278 242 366 128 400 82 c 0
 419 57 428 40 454 29 c 0
 462 26 468 22 468 14 c 0
 468 1 458 -1 448 -1 c 0
 426 -1 387 1 353 1 c 0
 316 1 298 -1 280 -1 c 0
 270 -1 260 1 260 14 c 0
 260 36 304 28 304 64 c 0
 304 80 231 189 227 189 c 0
 223 189 150 74 150 62 c 0
 150 17 199 38 199 14 c 0
 199 1 189 -1 179 -1 c 0
 161 -1 136 1 116 1 c 0
 98 1 53 -1 38 -1 c 0
 28 -1 18 1 18 14 c 0
 18 31 46 36 66 56 c 0
 120 109 205 213 205 220 c 0xec
EndSplineSet
Layer: 2
SplineSet
203 221 m 4xec
 203 228 84 385 77 394 c 4
 61 414 51 415 35 422 c 4
 27 425 21 432 21 440 c 4
 21 453 31 455 41 455 c 4
 63 455 92 453 126 453 c 4
 163 453 186 455 204 455 c 4
 214 455 224 453 224 440 c 4
 224 418 189 429 189 393 c 4
 189 377 253 284 256 284 c 4
 260 284 324 370 324 394 c 4
 324 430 280 416 280 440 c 4
 280 453 290 455 300 455 c 4
 318 455 343 453 363 453 c 4
 381 453 411 455 426 455 c 4
 436 455 446 453 446 440 c 4xda
 446 435 442 430 439 428 c 4
 411 412 407 411 392 394 c 28
 345 342 279 260 279 254 c 4
 279 247 366 128 400 82 c 4
 419 57 428 40 454 29 c 4
 462 26 468 22 468 14 c 4
 468 1 458 -1 448 -1 c 4
 426 -1 387 1 353 1 c 4
 316 1 298 -1 280 -1 c 4
 270 -1 260 1 260 14 c 4
 260 36 304 28 304 64 c 4
 304 80 230 190 226 190 c 4
 222 190 150 74 150 62 c 4
 150 17 199 38 199 14 c 4
 199 1 189 -1 179 -1 c 4
 161 -1 136 1 116 1 c 4
 98 1 53 -1 38 -1 c 4
 28 -1 18 1 18 14 c 4
 18 31 46 36 66 56 c 4
 120 109 203 214 203 221 c 4xec
EndSplineSet
EndChar

StartChar: y
Encoding: 121 121 24
Width: 539
VWidth: 0
Flags: W
HStem: -212 86<35 125.693> 431 20G<43 59 200 214 367 381 486 502>
VStem: 28 152<386.5 442.5> 402 115<370 442.5>
LayerCount: 3
Fore
SplineSet
248 34 m 0
 223 92 101 352 81 386 c 0
 70 405 63 413 42 421 c 0
 34 424 28 428 28 436 c 0
 28 449 38 451 48 451 c 0
 70 451 95 449 129 449 c 0
 166 449 191 451 209 451 c 0
 219 451 229 449 229 436 c 0
 229 412 180 423 180 390 c 0
 180 383 184 366 187 358 c 0
 227 258 295 109 301 109 c 0
 308 109 357 232 388 319 c 0
 398 347 402 359 402 381 c 0
 402 424 352 412 352 436 c 0
 352 449 362 451 372 451 c 0
 390 451 398 449 435 449 c 0
 469 449 475 451 497 451 c 0
 507 451 517 449 517 436 c 0
 517 431 513 426 510 424 c 0
 477 405 473 404 452 358 c 0
 407 260 307 -6 202 -126 c 0
 156 -179 97 -212 72 -212 c 0
 36 -212 25 -178 25 -146 c 0
 25 -124 43 -123 49 -123 c 0
 59 -123 74 -126 87 -126 c 0
 144 -126 194 -70 219 -38 c 0
 225 -30 234 -16 241 -4 c 0
 248 8 251 14 251 21 c 0
 251 25 250 29 248 34 c 0
EndSplineSet
Layer: 2
SplineSet
248 34 m 4
 223 92 101 356 81 390 c 4
 70 409 63 417 42 425 c 4
 34 428 28 432 28 440 c 4
 28 453 38 455 48 455 c 4
 70 455 95 453 129 453 c 4
 166 453 191 455 209 455 c 4
 219 455 229 453 229 440 c 4
 229 416 180 427 180 394 c 4
 180 387 184 370 187 362 c 4
 227 262 295 109 301 109 c 4
 308 109 357 232 388 319 c 4
 398 347 404 363 404 385 c 4
 404 428 354 415 354 440 c 4
 354 453 364 455 374 455 c 4
 392 455 400 453 437 453 c 4
 471 453 477 455 499 455 c 4
 509 455 519 453 519 440 c 4
 519 435 515 430 512 428 c 4
 479 409 475 408 454 362 c 4
 409 264 307 -6 202 -126 c 4
 156 -179 97 -212 72 -212 c 4
 36 -212 25 -178 25 -146 c 4
 25 -124 43 -123 49 -123 c 4
 59 -123 74 -126 87 -126 c 4
 144 -126 194 -70 219 -38 c 4
 225 -30 234 -16 241 -4 c 4
 248 8 251 14 251 21 c 4
 251 25 250 29 248 34 c 4
EndSplineSet
EndChar

StartChar: z
Encoding: 122 122 25
Width: 425
VWidth: 0
Flags: W
HStem: 0 82<127.005 346.59> 378 75<78.9862 281.996>
DStem2: 112 149 135 105 0.61168 0.791106<-38.9684 280.172>
LayerCount: 3
Fore
SplineSet
26 30 m 0
 50 67 81 108 112 149 c 0
 262 343 l 2
 271 355 282 366 282 372 c 0
 282 376 277 378 262 378 c 2
 214 378 l 2
 172 378 123 377 107 373 c 0
 81 367 70 347 61 325 c 0
 60 322 56 318 52 318 c 0
 45 318 36 318 36 329 c 0
 36 369 40 394 42 433 c 0
 43 444 48 453 60 453 c 2
 372 453 l 2
 380 453 384 448 384 442 c 0
 384 427 378 421 374 415 c 0
 296 315 198 191 135 105 c 0
 129 97 127 91 127 88 c 0
 127 83 134 82 152 82 c 2
 249 82 l 2
 272 82 294 83 314 87 c 0
 345 94 354 113 384 141 c 0
 390 146 403 139 403 131 c 0
 403 127 401 120 400 117 c 0
 386 80 375 57 360 24 c 0
 353 9 341 0 324 0 c 2
 36 0 l 2
 28 0 23 10 23 19 c 0
 23 23 24 27 26 30 c 0
EndSplineSet
EndChar

StartChar: A
Encoding: 65 65 26
Width: 760
VWidth: 0
Flags: W
HStem: -1 37<175.308 241.435 447.449 505.755 652.048 699.745> 217 53<238.266 444.159> 690 20G<372 389.5>
VStem: 19 149<7.5 85> 511 189<7.5 96>
DStem2: 421 622 360 504 0.364874 -0.931057<53.913 326.071 387.453 538.594>
LayerCount: 3
Fore
SplineSet
263 270 m 2
 421 270 l 2
 439 270 445 272 445 281 c 0
 445 285 444 291 441 299 c 2
 360 504 l 2
 352 524 348 534 344 534 c 0
 340 534 335 524 327 504 c 2
 244 299 l 2
 241 290 238 283 238 279 c 0
 238 272 244 270 263 270 c 2
680 35 m 0
 695 30 700 24 700 14 c 0
 700 1 690 -1 680 -1 c 0
 658 -1 611 1 577 1 c 0
 543 1 489 -1 467 -1 c 0
 457 -1 447 1 447 14 c 0
 447 28 463 30 481 36 c 0
 500 43 511 53 511 77 c 0
 511 115 490 163 479 193 c 0
 471 214 471 217 440 217 c 2
 245 217 l 2
 214 217 213 215 204 193 c 2
 177 122 l 2
 171 106 168 91 168 79 c 0
 168 56 180 40 216 32 c 0
 230 29 242 25 242 14 c 0
 242 1 232 -1 222 -1 c 0
 200 -1 161 1 127 1 c 0
 93 1 61 -1 39 -1 c 0
 29 -1 19 1 19 14 c 0
 19 35 38 28 66 49 c 0
 77 57 85 71 92 87 c 0
 167 255 258 493 351 683 c 0
 354 690 363 710 381 710 c 0
 398 710 402 690 407 670 c 0
 412 648 415 638 421 622 c 2
 624 104 l 2
 637 71 651 45 680 35 c 0
EndSplineSet
EndChar

StartChar: B
Encoding: 66 66 27
Width: 696
VWidth: 0
Flags: W
HStem: -10 48<253.81 461.34> -1 21G<64 80> 339 46<229.036 437.746> 650 50<230.534 425.813> 672 20G<64 80>
VStem: 122 104<65.0264 335.204 387.553 642.872> 502 104<473.02 584.713> 545 115<118.755 266.184>
LayerCount: 3
Fore
SplineSet
314 650 m 0x36
 273 650 228 649 228 618 c 0
 228 601 226 569 226 507 c 2
 226 419 l 2
 226 385 247 385 291 385 c 0
 426 385 502 410 502 512 c 0
 502 602 428 650 314 650 c 0x36
291 339 m 0
 226 339 226 330 226 274 c 2
 226 178 l 2
 226 74 230 38 357 38 c 0
 475 38 545 100 545 192 c 0xa5
 545 282 477 339 291 339 c 0
368 -10 m 0
 309 -10 224 1 174 1 c 0
 140 1 91 -1 69 -1 c 0
 59 -1 49 1 49 14 c 0
 49 35 94 29 110 52 c 0
 122 69 122 77 122 184 c 2
 122 507 l 2
 122 614 122 622 110 639 c 0
 94 662 49 656 49 677 c 0
 49 690 59 692 69 692 c 0x6d
 91 692 140 690 174 690 c 0
 226 690 331 700 364 700 c 0
 516 700 606 649 606 551 c 0x36
 606 476 557 434 520 411 c 0
 498 397 476 388 476 384 c 0
 476 382 497 380 520 372 c 0
 573 354 660 311 660 206 c 0
 660 142 628 78 561 40 c 0
 472 -10 398 -10 368 -10 c 0
EndSplineSet
EndChar

StartChar: C
Encoding: 67 67 28
Width: 736
VWidth: 0
Flags: W
HStem: -18 50<331.257 533.614> 659 47<311.027 504.679>
VStem: 42 118<232.884 454.105> 638 35<472.023 524.635>
LayerCount: 3
Fore
SplineSet
42 324 m 0
 42 538 199 706 415 706 c 4
 466 706 646 686 654 630 c 2
 673 495 l 2
 675 480 664 472 656 472 c 0
 647 472 643 479 638 490 c 0
 602 572 529 659 408 659 c 0
 246 659 160 508 160 351 c 0
 160 249 220 32 436 32 c 0
 579 32 642 153 664 189 c 0
 665 191 669 192 672 192 c 0
 680 192 692 183 692 173 c 0
 692 156 687 130 678 101 c 0
 670 74 668 56 657 37 c 0
 650 24 632 16 610 8 c 0
 560 -10 483 -18 434 -18 c 0
 206 -18 42 94 42 324 c 0
EndSplineSet
EndChar

StartChar: D
Encoding: 68 68 29
Width: 814
VWidth: 0
Flags: W
HStem: -8 52<274.588 490.169> -1 21G<67 83> 649 53<242.783 473.094> 672 20G<67 83>
VStem: 130 104<81.0973 641.073> 670 112<256.782 463.999>
LayerCount: 3
Fore
SplineSet
246 635 m 0xac
 234 618 234 586 234 507 c 2
 234 224 l 2
 234 188 234 109 246 92 c 0
 262 69 293 44 392 44 c 0
 541 44 670 170 670 334 c 0
 670 548 533 649 327 649 c 0
 300 649 255 647 246 635 c 0xac
182 1 m 0
 148 1 94 -1 72 -1 c 0
 62 -1 52 1 52 14 c 0
 52 35 102 29 118 52 c 0
 130 69 130 77 130 184 c 2
 130 507 l 2
 130 614 130 622 118 639 c 0
 102 662 52 656 52 677 c 0
 52 690 62 692 72 692 c 0x5c
 94 692 148 690 182 690 c 4
 231 690 314 702 405 702 c 4
 650 702 782 566 782 378 c 0
 782 157 589 -8 368 -8 c 0
 290 -8 265 1 182 1 c 0
EndSplineSet
EndChar

StartChar: E
Encoding: 69 69 30
Width: 725
VWidth: 0
Flags: W
HStem: 1 52<251.506 546.377> 329 46<237 475.338> 444 20G<519.5 535.5> 638 52<239.272 512.411>
VStem: 133 104<67.5868 329 375 635.021>
LayerCount: 3
Fore
SplineSet
530 352 m 0
 530 317 544 271 544 256 c 0
 544 248 542 240 529 240 c 0
 510 240 509 290 466 314 c 0
 444 326 348 329 302 329 c 2
 237 329 l 1
 237 178 l 2
 237 74 238 53 340 53 c 0
 434 53 542 58 605 103 c 0
 625 117 633 123 653 145 c 0
 670 164 676 177 684 177 c 0
 692 177 702 168 702 161 c 0
 702 154 675 92 672 84 c 0
 656 44 662 57 642 12 c 0
 637 0 630 0 618 0 c 0
 478 0 328 1 185 1 c 0
 151 1 102 -1 80 -1 c 0
 70 -1 60 1 60 14 c 0
 60 35 105 29 121 52 c 0
 133 69 133 77 133 184 c 2
 133 507 l 2
 133 614 133 622 121 639 c 0
 105 662 60 656 60 677 c 0
 60 690 70 692 80 692 c 0
 102 692 151 690 185 690 c 0
 330 690 449 691 591 691 c 0
 602 691 614 690 614 679 c 0
 615 651 616 637 618 600 c 0
 619 583 623 547 623 525 c 0
 623 517 615 514 600 514 c 0
 594 514 590 518 587 526 c 0
 567 585 529 614 484 627 c 0
 455 635 412 638 340 638 c 2
 294 638 l 2
 261 638 240 635 239 614 c 0
 238 597 237 569 237 507 c 2
 237 375 l 1
 302 375 l 2
 348 375 444 378 466 390 c 0
 509 414 510 464 529 464 c 0
 542 464 544 456 544 448 c 0
 544 433 530 387 530 352 c 0
EndSplineSet
EndChar

StartChar: F
Encoding: 70 70 31
Width: 669
VWidth: 0
Flags: W
HStem: -1 21G<75 91 309 325> 329 46<237 485.338> 444 20G<529.5 545.5> 638 52<239.272 535.411>
VStem: 133 104<44.625 329 375 635.021> 610 36<504.159 562.721>
LayerCount: 3
Fore
SplineSet
237 184 m 2
 237 77 237 69 249 52 c 0
 265 29 340 39 340 14 c 0
 340 1 330 -1 320 -1 c 0
 298 -1 219 1 185 1 c 4
 151 1 102 -1 80 -1 c 0
 70 -1 60 1 60 14 c 0
 60 35 105 29 121 52 c 0
 133 69 133 77 133 184 c 2
 133 507 l 2
 133 614 133 622 121 639 c 0
 105 662 60 656 60 677 c 0
 60 690 70 692 80 692 c 0
 102 692 151 690 185 690 c 0
 330 690 472 691 614 691 c 0
 625 691 637 690 637 679 c 0
 638 651 639 637 641 600 c 0
 642 583 646 537 646 515 c 0
 646 507 638 504 623 504 c 0
 617 504 613 518 610 526 c 0
 590 585 552 614 507 627 c 0
 478 635 435 638 363 638 c 2
 294 638 l 2
 261 638 240 635 239 614 c 0
 238 597 237 569 237 507 c 2
 237 375 l 1
 312 375 l 2
 358 375 454 378 476 390 c 0
 519 414 520 464 539 464 c 0
 552 464 554 456 554 448 c 0
 554 433 540 387 540 352 c 0
 540 317 554 271 554 256 c 0
 554 248 552 240 539 240 c 0
 520 240 519 290 476 314 c 0
 454 326 358 329 312 329 c 2
 237 329 l 1
 237 184 l 2
EndSplineSet
EndChar

StartChar: G
Encoding: 71 71 32
Width: 782
VWidth: 0
Flags: W
HStem: -18 52<339.292 536.529> 230 39<488.137 572.662 708.33 756.968> 659 47<307.604 519.566>
VStem: 49 117<239.041 460.208> 584 112<71.6722 215.44> 651 43<497 522.286>
LayerCount: 3
Fore
SplineSet
49 328 m 0xf8
 49 545 203 706 427 706 c 0
 596 706 686 645 687 626 c 2
 694 505 l 2
 694 502 690 497 684 497 c 2
 666 497 l 2
 653 497 653 505 651 510 c 0xf4
 618 593 527 659 406 659 c 0
 245 659 166 516 166 360 c 0
 166 258 226 34 442 34 c 0
 497 34 535 51 567 75 c 0
 578 83 582 88 583 106 c 0
 584 117 584 127 584 136 c 2
 584 153 l 2
 584 196 582 204 573 216 c 0
 566 227 545 230 528 230 c 2
 516 230 l 2
 494 230 488 232 488 254 c 0
 488 267 500 269 510 269 c 0
 532 269 603 267 637 267 c 0
 671 267 720 269 742 269 c 0
 754 269 757 261 757 248 c 0
 757 231 746 231 734 230 c 0
 725 229 715 229 708 219 c 0
 699 205 696 184 696 164 c 2
 696 153 l 2
 696 122 698 88 700 56 c 0
 701 41 700 40 688 36 c 2
 610 8 l 2
 560 -10 483 -18 434 -18 c 0
 206 -18 49 129 49 328 c 0xf8
EndSplineSet
EndChar

StartChar: H
Encoding: 72 72 33
Width: 830
VWidth: 0
Flags: W
HStem: -1 21G<50 66 254 270 560 576 764 780> 330 46<212 618> 672 20G<50 66 254 270 560 576 764 780>
VStem: 108 104<43.1292 330 376 647.871> 618 104<43.1292 330 376 647.871>
LayerCount: 3
Fore
SplineSet
722 507 m 2
 722 184 l 2
 722 77 722 69 734 52 c 0
 750 29 795 35 795 14 c 0
 795 1 785 -1 775 -1 c 0
 753 -1 704 1 670 1 c 0
 636 1 587 -1 565 -1 c 0
 555 -1 545 1 545 14 c 0
 545 35 590 29 606 52 c 0
 618 69 618 77 618 184 c 2
 618 314 l 2
 618 329 617 330 600 330 c 2
 230 330 l 2
 212 330 212 330 212 312 c 2
 212 184 l 2
 212 77 212 69 224 52 c 0
 240 29 285 35 285 14 c 0
 285 1 275 -1 265 -1 c 0
 243 -1 194 1 160 1 c 0
 126 1 77 -1 55 -1 c 0
 45 -1 35 1 35 14 c 0
 35 35 80 29 96 52 c 0
 108 69 108 77 108 184 c 2
 108 507 l 2
 108 614 108 622 96 639 c 0
 80 662 35 656 35 677 c 0
 35 690 45 692 55 692 c 0
 77 692 126 690 160 690 c 0
 194 690 243 692 265 692 c 0
 275 692 285 690 285 677 c 0
 285 656 240 662 224 639 c 0
 212 622 212 614 212 507 c 2
 212 398 l 2
 212 379 212 376 230 376 c 2
 600 376 l 2
 617 376 618 378 618 397 c 2
 618 507 l 2
 618 614 618 622 606 639 c 0
 590 662 545 656 545 677 c 0
 545 690 555 692 565 692 c 0
 587 692 636 690 670 690 c 0
 704 690 753 692 775 692 c 0
 785 692 795 690 795 677 c 0
 795 656 750 662 734 639 c 0
 722 622 722 614 722 507 c 2
EndSplineSet
EndChar

StartChar: I
Encoding: 73 73 34
Width: 303
VWidth: 0
Flags: W
HStem: -1 21G<45 61 249 265> 672 20G<45 61 249 265>
VStem: 103 104<43.1292 647.871>
LayerCount: 3
Fore
SplineSet
207 507 m 2
 207 184 l 6
 207 77 207 69 219 52 c 4
 235 29 280 35 280 14 c 4
 280 1 270 -1 260 -1 c 4
 238 -1 189 1 155 1 c 4
 121 1 72 -1 50 -1 c 4
 40 -1 30 1 30 14 c 4
 30 35 75 29 91 52 c 4
 103 69 103 77 103 184 c 6
 103 507 l 2
 103 614 103 622 91 639 c 0
 75 662 30 656 30 677 c 0
 30 690 40 692 50 692 c 0
 72 692 121 690 155 690 c 0
 189 690 238 692 260 692 c 0
 270 692 280 690 280 677 c 0
 280 656 235 662 219 639 c 0
 207 622 207 614 207 507 c 2
EndSplineSet
EndChar

StartChar: J
Encoding: 74 74 35
Width: 384
VWidth: 0
Flags: W
HStem: -219 59<-31.5 87.8473> 672 20G<70 86 279 295>
VStem: 133 104<-50.3809 647.871>
LayerCount: 3
Fore
SplineSet
133 73 m 2
 133 507 l 2
 133 614 133 622 121 639 c 0
 105 662 55 656 55 677 c 0
 55 690 65 692 75 692 c 0
 97 692 151 690 185 690 c 0
 219 690 268 692 290 692 c 0
 300 692 310 690 310 677 c 0
 310 656 265 662 249 639 c 0
 237 622 237 614 237 507 c 2
 237 85 l 2
 237 23 232 -40 181 -113 c 0
 138 -174 75 -219 0 -219 c 0
 -63 -219 -129 -164 -129 -126 c 0
 -129 -107 -88 -66 -63 -66 c 0
 -46 -66 -28 -87 -19 -99 c 0
 2 -126 21 -160 54 -160 c 0
 132 -160 133 -40 133 73 c 2
EndSplineSet
EndChar

StartChar: K
Encoding: 75 75 36
Width: 786
VWidth: 0
Flags: W
HStem: -1 21G<40 56 254 270 572.5 593 739 755> 672 20G<40 56 244 260 455 471 689 705>
VStem: 98 104<43.1292 305.029 341.004 647.871>
LayerCount: 3
Fore
SplineSet
770 14 m 0
 770 1 760 -1 750 -1 c 0
 728 -1 679 1 645 1 c 0
 611 1 607 0 579 0 c 0
 566 0 564 3 554 14 c 0
 458 128 376 196 251 312 c 0
 249 314 245 318 242 318 c 0
 239 318 237 315 230 310 c 0
 225 306 214 297 208 291 c 0
 203 286 202 284 202 282 c 2
 202 184 l 2
 202 77 202 69 214 52 c 0
 230 29 285 35 285 14 c 0
 285 1 275 -1 265 -1 c 0
 243 -1 184 1 150 1 c 0
 116 1 67 -1 45 -1 c 0
 35 -1 25 1 25 14 c 0
 25 35 70 29 86 52 c 0
 98 69 98 77 98 184 c 2
 98 507 l 2
 98 614 98 622 86 639 c 0
 70 662 25 656 25 677 c 0
 25 690 35 692 45 692 c 0
 67 692 116 690 150 690 c 0
 184 690 233 692 255 692 c 0
 265 692 275 690 275 677 c 0
 275 656 230 662 214 639 c 0
 202 622 202 614 202 507 c 2
 202 368 l 2
 202 347 204 341 208 341 c 0
 211 341 424 525 472 575 c 0
 487 591 504 612 504 628 c 0
 504 661 440 654 440 677 c 0
 440 690 450 692 460 692 c 0
 482 692 546 690 580 690 c 0
 614 690 678 692 700 692 c 0
 710 692 720 690 720 677 c 0
 720 660 687 654 669 646 c 0
 582 608 392 445 337 397 c 0
 328 389 324 386 324 384 c 0
 324 382 329 377 337 370 c 0
 401 310 647 78 702 49 c 0
 733 33 770 32 770 14 c 0
EndSplineSet
Layer: 2
SplineSet
735 36 m 4
 752 30 770 27 770 14 c 4
 770 1 760 -1 750 -1 c 4
 728 -1 679 1 645 1 c 4
 611 1 607 0 579 0 c 4
 566 0 564 3 554 14 c 4
 458 128 376 196 251 312 c 4
 249 314 244 315 241 315 c 4
 232 315 202 289 202 282 c 6
 202 184 l 6
 202 77 202 69 214 52 c 4
 230 29 285 35 285 14 c 4
 285 1 275 -1 265 -1 c 4
 243 -1 184 1 150 1 c 4
 116 1 67 -1 45 -1 c 4
 35 -1 25 1 25 14 c 4
 25 35 70 29 86 52 c 4
 98 69 98 77 98 184 c 6
 98 507 l 6
 98 614 98 622 86 639 c 4
 70 662 25 656 25 677 c 4
 25 690 35 692 45 692 c 4
 67 692 116 690 150 690 c 4
 184 690 233 692 255 692 c 4
 265 692 275 690 275 677 c 4
 275 656 230 662 214 639 c 4
 202 622 202 614 202 507 c 6
 202 368 l 6
 202 347 204 341 208 341 c 4
 211 341 424 525 472 575 c 4
 487 591 504 612 504 628 c 4
 504 632 503 636 501 639 c 4
 485 662 440 656 440 677 c 4
 440 690 450 692 460 692 c 4
 482 692 546 690 580 690 c 4
 614 690 678 692 700 692 c 4
 710 692 720 690 720 677 c 4
 720 663 704 659 685 652 c 4
 659.817529641 643.605843214 646.409619073 635.631201995 623 621 c 4
 527 562 322 384 322 384 c 5
 322 384 532 183 672 69 c 4
 700 46 725 39 735 36 c 4
EndSplineSet
EndChar

StartChar: L
Encoding: 76 76 37
Width: 688
VWidth: 0
Flags: W
HStem: 0 53<251.506 513.753> 672 20G<75 91 284 300>
VStem: 133 104<67.5868 647.871>
LayerCount: 3
Fore
SplineSet
646 177 m 0
 654 177 664 168 664 161 c 0
 664 154 637 92 634 84 c 0
 618 44 624 57 604 12 c 0
 599 0 592 0 580 0 c 0
 440 0 328 1 185 1 c 0
 151 1 97 -1 75 -1 c 0
 65 -1 55 1 55 14 c 0
 55 35 105 29 121 52 c 0
 133 69 133 77 133 184 c 2
 133 507 l 2
 133 614 133 622 121 639 c 0
 105 662 60 656 60 677 c 0
 60 690 70 692 80 692 c 0
 102 692 151 690 185 690 c 0
 219 690 273 692 295 692 c 0
 305 692 315 690 315 677 c 0
 315 656 265 662 249 639 c 0
 237 622 237 614 237 507 c 2
 237 178 l 2
 237 74 238 53 340 53 c 0
 426 53 504 58 567 103 c 0
 587 117 595 123 615 145 c 0
 632 164 638 177 646 177 c 0
EndSplineSet
EndChar

StartChar: M
Encoding: 77 77 38
Width: 972
VWidth: 0
Flags: W
HStem: -1 21G<37 53 191 207 446 453 689 705 903 919> 672 20G<79 95 863 879>
VStem: 106 44<56.9281 267.741> 133 44<423.259 529.986> 728 100<408.696 540.993> 752 99<52.0051 278.208>
DStem2: 235 674 125 639 0.421766 -0.906705<-27.5279 28.2739 108.297 574.229> 462 186 434 10 0.421766 -0.906705<-429.916 36.0162> 500 186 466 14 0.423781 0.905765<-36.0249 415.514>
LayerCount: 3
Fore
SplineSet
177 507 m 0xd8
 169 379 150 124 150 113 c 0
 150 72 154 64 162 52 c 0
 178 29 222 35 222 14 c 0
 222 1 212 -1 202 -1 c 0
 180 -1 151 1 117 1 c 0
 83 1 64 -1 42 -1 c 0
 32 -1 22 1 22 14 c 0
 22 35 65 29 81 52 c 0
 93 69 97 78 106 184 c 2xe0
 133 507 l 2
 137 552 139 579 139 597 c 0
 139 622 132 629 125 639 c 0
 109 662 64 656 64 677 c 0
 64 690 74 692 84 692 c 0
 106 692 155 690 189 690 c 2
 201 690 l 2
 224 690 228 689 235 674 c 2
 462 186 l 2
 472 165 476 155 481 155 c 0
 486 155 490 165 500 186 c 2
 733 684 l 2
 736 690 743 690 769 690 c 0
 803 690 852 692 874 692 c 0
 884 692 894 690 894 677 c 0
 894 656 849 662 833 639 c 0
 826 629 822 622 822 597 c 0
 822 579 825 552 828 507 c 2xd8
 851 184 l 2
 858 78 861 69 873 52 c 0
 889 29 934 35 934 14 c 0
 934 1 924 -1 914 -1 c 0
 892 -1 843 1 809 1 c 0
 775 1 716 -1 694 -1 c 0
 684 -1 674 1 674 14 c 0
 674 35 719 29 735 52 c 0
 743 64 752 72 752 113 c 0xc4
 752 130 751 153 749 184 c 2
 728 507 l 2
 727 531 726 541 722 541 c 0
 717 541 708 524 699 506 c 0
 600 308 550 193 466 14 c 0
 461 4 457 -2 449 -2 c 0
 443 -2 439 0 434 10 c 2
 204 496 l 18
 191 522 186 530 182 530 c 0
 178 530 177 511 177 507 c 0xd8
EndSplineSet
EndChar

StartChar: N
Encoding: 78 78 39
Width: 820
VWidth: 0
Flags: W
HStem: -17 21G<697.5 713> -1 33<194.155 278.873> 658 34<34.1971 89.2322>
VStem: 113 53<53.8375 400.683> 122 45<348.155 550.996> 673 45<170.009 642.049>
DStem2: 193 674 83 646 0.679734 -0.733459<-42.111 25.7552 540.465 691.785>
LayerCount: 3
Fore
SplineSet
172 551 m 0xac
 169 551 167 546 167 533 c 2xac
 166 113 l 2
 166 31 225 41 255 32 c 0
 268 28 279 24 279 14 c 0
 279 1 269 -1 259 -1 c 0
 237 -1 173 1 139 1 c 0
 105 1 71 -1 49 -1 c 0
 39 -1 29 1 29 14 c 0
 29 35 70 33 90 52 c 0
 111 72 108 78 113 184 c 0x74
 119 310 122 433 122 559 c 0
 122 600 120 610 109 622 c 0
 104 628 92 640 83 646 c 0
 75 651 72 654 58 658 c 0
 45 662 34 666 34 677 c 0
 34 690 44 692 54 692 c 0
 76 692 113 690 147 690 c 2
 159 690 l 2
 182 690 182 686 193 674 c 2
 641 192 l 2
 654 178 665 170 667 170 c 0
 673 170 673 182 673 213 c 0
 673 302 668 511 668 548 c 0
 667 617 664 624 654 639 c 0
 638 662 575 656 575 677 c 0
 575 690 585 692 595 692 c 0
 617 692 656 690 690 690 c 0
 724 690 753 692 775 692 c 0
 785 692 795 690 795 677 c 0
 795 656 745 662 729 639 c 0
 717 622 717 614 717 507 c 0
 717 374 718 254 718 120 c 0
 718 98 718 79 720 55 c 0
 722 28 725 6 725 1 c 0
 725 -10 719 -17 707 -17 c 0
 688 -17 677 5 665 18 c 2
 665 18 175 551 172 551 c 0xac
EndSplineSet
EndChar

StartChar: O
Encoding: 79 79 40
Width: 756
VWidth: 0
Flags: W
HStem: -12 48<292.738 476.825> 662 40<293.087 460.113>
VStem: 54 118<219.719 482.267> 596 113<217.578 489.894>
LayerCount: 3
Fore
SplineSet
379 662 m 0
 238 662 172 537 172 355 c 0
 172 225 208 36 384 36 c 0
 572 36 596 226 596 351 c 0
 596 501 531 662 379 662 c 0
709 346 m 0
 709 139 567 -12 384 -12 c 0
 174 -12 54 160 54 353 c 0
 54 555 192 702 377 702 c 0
 558 702 709 597 709 346 c 0
EndSplineSet
EndChar

StartChar: P
Encoding: 80 80 41
Width: 627
VWidth: 0
Flags: W
HStem: -1 21G<44 60 278 294> 298 38<272.914 416.933> 650 50<210.534 405.294> 672 20G<44 60>
VStem: 102 104<44.625 642.872> 488 108<422.968 574.993>
LayerCount: 3
Fore
SplineSet
344 700 m 0xec
 499 700 596 644 596 515 c 0
 596 414 519 298 360 298 c 0
 321 298 299 301 270 308 c 0
 261 310 258 317 258 325 c 0
 258 335 264 346 274 346 c 0
 284 346 300 336 344 336 c 0
 458 336 488 434 488 496 c 0
 488 586 424 650 294 650 c 0xec
 253 650 208 649 208 618 c 0
 208 601 206 569 206 507 c 2
 206 184 l 2
 206 77 206 69 218 52 c 0
 234 29 309 39 309 14 c 0
 309 1 299 -1 289 -1 c 0
 267 -1 188 1 154 1 c 0
 120 1 71 -1 49 -1 c 0
 39 -1 29 1 29 14 c 0
 29 35 74 29 90 52 c 0
 102 69 102 77 102 184 c 2
 102 507 l 2
 102 614 102 622 90 639 c 0
 74 662 29 656 29 677 c 0
 29 690 39 692 49 692 c 0xdc
 71 692 120 690 154 690 c 0
 206 690 311 700 344 700 c 0xec
EndSplineSet
EndChar

StartChar: Q
Encoding: 81 81 42
Width: 750
VWidth: 0
Flags: W
HStem: -202 59<617.5 763.272> 662 40<293.778 464.156>
VStem: 54 118<220.165 478.227> 607 103<216.539 487.679>
LayerCount: 3
Fore
SplineSet
172 355 m 0
 172 222 220 34 396 34 c 0
 574 34 607 230 607 351 c 0
 607 506 531 662 379 662 c 0
 238 662 172 537 172 355 c 0
724 -143 m 0
 739 -143 770 -130 775 -130 c 0
 784 -130 789 -137 789 -148 c 0
 789 -174 766 -179 747 -186 c 0
 719 -197 690 -202 666 -202 c 0
 569 -202 494 -91 409 -30 c 0
 389 -16 380 -16 332 -8 c 0
 155 22 54 176 54 353 c 0
 54 555 202 702 387 702 c 0
 539 702 710 607 710 356 c 0
 710 179 628 69 513 17 c 0
 505 13 508 9 513 5 c 0
 540 -20 583 -56 644 -102 c 0
 667 -120 692 -143 724 -143 c 0
EndSplineSet
EndChar

StartChar: R
Encoding: 82 82 43
Width: 759
VWidth: 0
Flags: W
HStem: 0 27<678.875 728.921> 320 40<207.562 333.156> 650 50<210.555 399.875> 672 20G<44 60>
VStem: 102 104<44.625 319.585 360.435 642.872> 468 108<442.373 587.653>
LayerCount: 3
Fore
SplineSet
344 700 m 0xec
 503 700 576 630 576 522 c 0
 576 453 540 394 425 350 c 0
 406 343 398 341 398 337 c 0
 398 333 407 328 424 316 c 0
 440 305 456 293 466 283 c 0
 538 212 565 145 640 70 c 0
 666 44 691 30 720 27 c 0
 726 26 729 18 729 12 c 0
 729 7 728 1 723 0 c 0
 698 -4 665 -8 645 -8 c 0
 573 -8 511 35 479 90 c 0
 439 158 403 217 348 288 c 0
 329 312 305 320 264 320 c 2
 238 320 l 2
 212 320 206 316 206 276 c 2
 206 184 l 2
 206 77 206 69 218 52 c 0
 234 29 304 39 304 14 c 0
 304 1 294 -1 284 -1 c 0
 262 -1 188 1 154 1 c 0
 120 1 71 -1 49 -1 c 0
 39 -1 29 1 29 14 c 0
 29 35 74 29 90 52 c 0
 102 69 102 77 102 184 c 2
 102 507 l 2
 102 614 102 622 90 639 c 0
 74 662 29 656 29 677 c 0
 29 690 39 692 49 692 c 0xdc
 71 692 120 690 154 690 c 0
 206 690 311 700 344 700 c 0xec
468 516 m 0
 468 590 418 650 294 650 c 0xec
 254 650 208 649 208 618 c 0
 208 601 206 569 206 507 c 2
 206 400 l 2
 206 362 208 360 244 360 c 2
 281 360 l 2
 387 360 468 388 468 516 c 0
EndSplineSet
EndChar

StartChar: S
Encoding: 83 83 44
Width: 544
VWidth: 0
Flags: W
HStem: -16 56<205.278 388.852> 659 49<178.641 345.827>
VStem: 53 77<493.043 601.551> 435 85<94.9412 214.12> 443 33<503.091 550.776>
LayerCount: 3
Fore
SplineSet
53 80 m 0xf0
 44 142 28 188 28 203 c 0
 28 209 33 218 44 218 c 0
 54 218 64 206 74 188 c 0
 104 136 168 40 314 40 c 0
 392 40 435 89 435 159 c 0xf0
 435 320 53 279 53 518 c 0
 53 642 172 708 278 708 c 0
 315 708 351 702 386 692 c 0
 419 683 468 658 469 637 c 0
 471 598 476 529 476 517 c 0
 476 508 469 503 461 503 c 0
 454 503 445 507 443 514 c 0xe8
 422 577 360 659 269 659 c 0
 163 659 130 601 130 544 c 0
 130 391 520 433 520 190 c 0
 520 62 423 -16 306 -16 c 0
 286 -16 221 -16 154 13 c 0
 139 19 129 22 122 22 c 0
 99 22 100 -14 85 -14 c 2
 77 -14 l 2
 61 -14 58 18 58 26 c 0
 57 46 54 74 53 80 c 0xf0
EndSplineSet
EndChar

StartChar: T
Encoding: 84 84 45
Width: 700
VWidth: 0
Flags: W
HStem: -1 21G<246 262 460 476> 646 47<153.453 308.638 413.362 568.964>
VStem: 309 104<43.1292 643.568>
LayerCount: 3
Fore
SplineSet
361 690 m 0
 443 690 542 693 647 693 c 0
 663 693 666 688 668 678 c 0
 681 615 697 529 697 516 c 0
 697 504 686 502 680 502 c 0
 658 502 646 646 470 646 c 0
 417 646 413 637 413 617 c 2
 413 184 l 6
 413 77 413 69 425 52 c 4
 441 29 491 35 491 14 c 4
 491 1 481 -1 471 -1 c 4
 449 -1 395 1 361 1 c 4
 327 1 273 -1 251 -1 c 4
 241 -1 231 1 231 14 c 4
 231 35 281 29 297 52 c 4
 309 69 309 77 309 184 c 6
 309 617 l 2
 309 637 305 646 252 646 c 0
 76 646 67 502 45 502 c 0
 39 502 28 504 28 516 c 0
 28 529 44 615 57 678 c 0
 59 688 62 693 78 693 c 0
 183 693 279 690 361 690 c 0
EndSplineSet
EndChar

StartChar: U
Encoding: 85 85 46
Width: 748
VWidth: 0
Flags: W
HStem: -18 53<300.497 494.35> 672 20G<35 51 249 265 530 546 704 720>
VStem: 93 104<138.242 647.871> 613 54<154.969 637.589>
LayerCount: 3
Fore
SplineSet
613 244 m 2
 613 487 l 2
 613 577 605 614 595 633 c 0
 576 668 515 651 515 677 c 0
 515 690 525 692 535 692 c 0
 557 692 606 690 640 690 c 0
 674 690 693 692 715 692 c 0
 725 692 735 690 735 677 c 0
 735 656 695 662 679 639 c 0
 667 622 667 614 667 487 c 2
 667 256 l 2
 667 118 598 -18 383 -18 c 0
 114 -18 93 141 93 246 c 2
 93 507 l 2
 93 614 93 622 81 639 c 0
 65 662 20 656 20 677 c 0
 20 690 30 692 40 692 c 0
 62 692 111 690 145 690 c 0
 179 690 238 692 260 692 c 0
 270 692 280 690 280 677 c 0
 280 656 225 662 209 639 c 0
 197 622 197 614 197 507 c 2
 197 244 l 2
 197 132 255 35 400 35 c 0
 528 35 613 137 613 244 c 2
EndSplineSet
Layer: 2
SplineSet
613 244 m 6
 613 487 l 6
 613 612 601 635 580 648 c 4
 555 664 515 655 515 677 c 4
 515 690 525 692 535 692 c 4
 557 692 606 690 640 690 c 4
 674 690 693 692 715 692 c 4
 725 692 735 690 735 677 c 4
 735 656 695 662 679 639 c 4
 667 622 667 614 667 487 c 6
 667 256 l 6
 667 118 598 -18 383 -18 c 4
 114 -18 93 141 93 246 c 6
 93 507 l 6
 93 614 93 622 81 639 c 4
 65 662 20 656 20 677 c 4
 20 690 30 692 40 692 c 4
 62 692 111 690 145 690 c 4
 179 690 238 692 260 692 c 4
 270 692 280 690 280 677 c 4
 280 656 225 662 209 639 c 4
 197 622 197 614 197 507 c 6
 197 244 l 6
 197 132 255 35 400 35 c 4
 528 35 613 137 613 244 c 6
EndSplineSet
EndChar

StartChar: V
Encoding: 86 86 47
Width: 694
VWidth: 0
Flags: W
HStem: -21 21G<348 360.5> 672 20G<27 43 239 255 488 504 648 661>
VStem: 544 132<597.5 683.5>
LayerCount: 3
Fore
SplineSet
84 592 m 2
 76 610 70 626 61 638 c 0
 43 662 14 658 14 677 c 0
 14 690 22 692 32 692 c 0
 54 692 111 690 145 690 c 0
 179 690 228 692 250 692 c 0
 260 692 270 690 270 677 c 0
 270 651 207 661 207 616 c 0
 207 575 229 525 242 488 c 0
 273 401 374 153 385 153 c 0
 395 153 509 469 526 530 c 0
 532 553 544 585 544 610 c 0
 544 662 473 651 473 677 c 0
 473 690 483 692 493 692 c 0
 515 692 560 690 590 690 c 0
 603 690 640 692 656 692 c 0
 666 692 676 690 676 677 c 0
 676 664 663 658 651 650 c 0
 634 639 627 621 619 601 c 2
 377 -4 l 2
 374 -11 366 -21 355 -21 c 0
 341 -21 336 -7 330 6 c 26
 84 592 l 2
EndSplineSet
Layer: 2
SplineSet
473 677 m 4
 473 690 483 692 493 692 c 4
 515 692 560 690 590 690 c 4
 603 690 640 692 656 692 c 4
 666 692 676 690 676 677 c 4
 676 664 663 658 651 650 c 4
 634 639 627 621 619 601 c 6
 377 -4 l 6
 374 -11 365 -21 354 -21 c 4
 347 -21 339 -16 334 -4 c 6
 84 592 l 6
 77 610 70 626 61 638 c 4
 43 662 14 658 14 677 c 4
 14 690 22 692 32 692 c 4
 54 692 111 690 145 690 c 4
 179 690 228 692 250 692 c 4
 260 692 270 690 270 677 c 4
 270 651 207 661 207 616 c 4
 207 575 229 525 242 488 c 4
 273 401 374 153 385 153 c 4
 395 153 509 469 526 530 c 4
 532 553 544 585 544 610 c 4
 544 662 473 651 473 677 c 4
EndSplineSet
EndChar

StartChar: W
Encoding: 87 87 48
Width: 984
VWidth: 0
Flags: W
HStem: -21 21G<325.5 334.5 655.5 664.5> 672 20G<32 43.5 219 235 347 363 556 572 773 789 927.5 936>
VStem: 19 178<595.5 683.5> 827 126<597.5 683.5>
LayerCount: 3
Fore
SplineSet
758 677 m 0
 758 690 768 692 778 692 c 0
 800 692 835 690 865 690 c 0
 878 690 924 692 931 692 c 0
 941 692 953 690 953 677 c 0
 953 664 938 658 926 650 c 0
 909 639 902 621 894 601 c 2
 682 -4 l 2
 679 -11 670 -21 659 -21 c 0
 652 -21 643 -16 639 -4 c 2
 507 351 l 2
 500 370 497 379 494 379 c 0
 491 379 488 370 481 351 c 2
 352 -4 l 2
 349 -11 340 -21 329 -21 c 0
 322 -21 314 -16 309 -4 c 2
 79 592 l 2
 72 610 65 626 56 638 c 0
 38 662 19 658 19 677 c 0
 19 690 27 692 37 692 c 0
 50 692 100 690 135 690 c 0
 169 690 208 692 230 692 c 0
 240 692 250 690 250 677 c 0
 250 651 197 661 197 616 c 0
 197 575 219 525 232 488 c 0
 263 401 349 164 360 164 c 0
 367 164 415 312 462 421 c 0
 467 433 470 440 470 448 c 0
 470 454 468 461 464 471 c 2
 419 592 l 2
 412 609 403 626 391 639 c 0
 366 665 334 658 334 677 c 0
 334 690 342 692 352 692 c 0
 374 692 436 690 470 690 c 0
 504 690 545 692 567 692 c 0
 577 692 587 690 587 677 c 0
 587 651 532 661 532 616 c 0
 532 575 551 525 564 488 c 0
 595 401 673 170 684 170 c 0
 694 170 794 469 811 530 c 0
 817 553 827 585 827 610 c 0
 827 662 758 651 758 677 c 0
EndSplineSet
Layer: 2
SplineSet
758 677 m 4
 758 690 768 692 778 692 c 4
 800 692 835 690 865 690 c 4
 878 690 924 692 931 692 c 4
 941 692 953 690 953 677 c 4
 953 664 938 658 926 650 c 4
 909 639 902 621 894 601 c 6
 682 -4 l 6
 679 -11 670 -21 659 -21 c 4
 652 -21 644 -16 639 -4 c 6
 493 383 l 5
 354 -4 l 6
 351 -11 342 -21 331 -21 c 4
 324 -21 316 -16 311 -4 c 6
 79 592 l 6
 72 610 65 626 56 638 c 4
 38 662 19 658 19 677 c 4
 19 690 27 692 37 692 c 4
 50 692 100 690 135 690 c 4
 169 690 208 692 230 692 c 4
 240 692 250 690 250 677 c 4
 250 651 197 661 197 616 c 4
 197 575 219 525 232 488 c 4
 263 401 349 164 360 164 c 4
 368 164 423 337 473 447 c 5
 419 592 l 6
 409 617 393 643 372 653 c 4
 354 662 334 663 334 677 c 4
 334 690 342 692 352 692 c 4
 374 692 436 690 470 690 c 4
 504 690 545 692 567 692 c 4
 577 692 587 690 587 677 c 4
 587 651 532 661 532 616 c 4
 532 575 551 525 564 488 c 4
 595 401 673 170 684 170 c 4
 694 170 794 469 811 530 c 4
 817 553 827 585 827 610 c 4
 827 662 758 651 758 677 c 4
EndSplineSet
EndChar

StartChar: X
Encoding: 88 88 49
Width: 806
VWidth: 0
Flags: W
HStem: -1 21G<30 46 264 280 500 516 756 772> 672 20G<58 74 313 329 511 527 718 731>
VStem: 15 214<7.5 86> 45 244<605 683.5> 552 194<593.5 683.5>
DStem2: 319 556 277 436 0.627241 -0.778825<-66.1593 165.396 243.029 521.975>
LayerCount: 3
Fore
SplineSet
244 43 m 0xe8
 263 31 295 31 295 14 c 0
 295 1 285 -1 275 -1 c 0
 253 -1 189 1 155 1 c 0
 121 1 57 -1 35 -1 c 0
 25 -1 15 1 15 14 c 0xe8
 15 41 62 21 111 65 c 0
 159 109 268 225 339 318 c 0
 347 329 352 335 352 340 c 0
 352 345 297 411 277 436 c 0
 215 512 144 603 101 638 c 0
 78 657 45 653 45 677 c 0
 45 690 53 692 63 692 c 0
 85 692 151 690 185 690 c 0
 219 690 302 692 324 692 c 0
 334 692 344 690 344 677 c 0
 344 651 289 663 289 618 c 0xd8
 289 592 301 583 319 556 c 0
 359 498 418 423 420 423 c 0
 425 423 552 564 552 623 c 0
 552 670 496 651 496 677 c 0
 496 690 506 692 516 692 c 0
 538 692 590 690 620 690 c 0
 633 690 710 692 726 692 c 0
 736 692 746 690 746 677 c 0
 746 652 716 664 672 630 c 0
 654 616 636 596 614 572 c 2
 461 398 l 2
 454 390 450 386 450 382 c 0
 450 378 453 374 459 366 c 2
 674 96 l 2
 684 84 692 75 699 68 c 0
 749 19 787 36 787 14 c 0
 787 1 777 -1 767 -1 c 0
 745 -1 669 1 635 1 c 0
 601 1 527 -1 505 -1 c 0
 495 -1 485 1 485 14 c 0
 485 39 546 27 546 62 c 0
 546 80 530 105 507 137 c 2
 404 276 l 2
 395 288 388 298 386 298 c 0
 384 298 376 288 366 276 c 0
 344 248 305 202 274 158 c 0
 264 144 229 102 229 70 c 0
 229 59 233 50 244 43 c 0xe8
EndSplineSet
Layer: 2
SplineSet
244 43 m 4x74
 263 31 295 31 295 14 c 4
 295 1 285 -1 275 -1 c 4x74
 253 -1 189 1 155 1 c 4
 121 1 57 -1 35 -1 c 4
 25 -1 15 1 15 14 c 4xb4
 15 35 57 30 91 49 c 4
 117 64 255 208 339 318 c 4
 347 329 352 335 352 340 c 4
 352 345 297 411 277 436 c 4
 215 512 144 603 101 638 c 4
 78 657 45 653 45 677 c 4
 45 690 53 692 63 692 c 4
 85 692 151 690 185 690 c 4
 219 690 302 692 324 692 c 4
 334 692 344 690 344 677 c 4
 344 651 289 663 289 618 c 4xac
 289 592 301 583 319 556 c 4
 359 498 418 423 420 423 c 4
 425 423 552 564 552 623 c 4
 552 670 496 651 496 677 c 4
 496 690 506 692 516 692 c 4
 538 692 590 690 620 690 c 4
 633 690 710 692 726 692 c 4
 736 692 746 690 746 677 c 4
 746 661 734 660 716 654 c 4
 678 641 652 615 614 572 c 6
 461 398 l 6
 454 390 450 386 450 382 c 4
 450 378 453 374 459 366 c 6
 674 97 l 6
 701 63 716 52 734 42 c 4
 755 31 787 31 787 14 c 4
 787 1 777 -1 767 -1 c 4
 745 -1 669 1 635 1 c 4
 601 1 527 -1 505 -1 c 4
 495 -1 485 1 485 14 c 4
 485 30 511 30 530 39 c 4
 542 44 546 52 546 62 c 4
 546 80 530 105 507 137 c 6
 404 276 l 6
 395 288 388 298 386 298 c 4
 384 298 376 288 366 276 c 4
 344 248 305 202 274 158 c 4
 264 144 229 102 229 70 c 4
 229 59 233 50 244 43 c 4x74
EndSplineSet
EndChar

StartChar: Y
Encoding: 89 89 50
Width: 745
VWidth: 0
Flags: W
HStem: -1 21G<260 276 474 490> 672 20G<28 44 260 276 521 537 696 709>
VStem: 15 223<615 683.5> 323 104<43.1292 323.094> 567 157<593.5 683.5>
LayerCount: 3
Fore
SplineSet
427 184 m 2
 427 77 427 69 439 52 c 0
 455 29 505 35 505 14 c 0
 505 1 495 -1 485 -1 c 0
 463 -1 409 1 375 1 c 0
 341 1 287 -1 265 -1 c 0
 255 -1 245 1 245 14 c 0
 245 35 295 29 311 52 c 0
 323 69 323 77 323 184 c 2
 323 266 l 2
 323 302 317 309 302 328 c 2
 219 442 l 1
 164 521 101 613 71 638 c 0
 48 657 15 653 15 677 c 0
 15 690 23 692 33 692 c 0
 55 692 121 690 155 690 c 0
 189 690 249 692 271 692 c 0
 281 692 291 690 291 677 c 0
 291 653 238 666 238 627 c 0
 238 603 260 574 273 555 c 0
 313 497 406 353 408 353 c 0
 413 353 567 564 567 623 c 0
 567 670 506 651 506 677 c 0
 506 690 516 692 526 692 c 0
 548 692 590 690 620 690 c 0
 633 690 688 692 704 692 c 0
 714 692 724 690 724 677 c 0
 724 652 706 664 662 630 c 0
 644 616 635 600 617 572 c 0
 580 515 492 385 445 320 c 0
 430 300 427 298 427 264 c 2
 427 184 l 2
EndSplineSet
Layer: 2
SplineSet
427 184 m 6
 427 77 427 69 439 52 c 4
 455 29 505 35 505 14 c 4
 505 1 495 -1 485 -1 c 4
 463 -1 409 1 375 1 c 4
 341 1 287 -1 265 -1 c 4
 255 -1 245 1 245 14 c 4
 245 35 295 29 311 52 c 4
 323 69 323 77 323 184 c 6
 323 300 l 5
 279 357 l 5
 217 433 114 603 71 638 c 4
 48 657 15 653 15 677 c 4
 15 690 23 692 33 692 c 4
 55 692 121 690 155 690 c 4
 189 690 249 692 271 692 c 4
 281 692 291 690 291 677 c 4
 291 659 266 663 251 652 c 4
 242 645 238 636 238 627 c 4
 238 603 260 575 273 556 c 4
 313 498 406 353 408 353 c 4
 413 353 567 564 567 623 c 4
 567 670 506 651 506 677 c 4
 506 690 516 692 526 692 c 4
 548 692 590 690 620 690 c 4
 633 690 688 692 704 692 c 4
 714 692 724 690 724 677 c 4
 724 652 706 664 662 630 c 4
 644 616 635 600 617 572 c 4
 574 506 465 342 427 295 c 5
 427 184 l 6
EndSplineSet
EndChar

StartChar: Z
Encoding: 90 90 51
Width: 579
VWidth: 0
Flags: W
LayerCount: 3
Fore
SplineSet
19 30 m 0
 59 78 111 153 158 214 c 2
 401 535 l 2
 414 553 426 571 426 580 c 0
 426 586 415 588 396 588 c 2
 229 588 l 2
 167 588 113 585 94 557 c 0
 86 545 83 531 80 514 c 0
 78 506 71 500 63 500 c 0
 54 500 46 505 46 516 c 0
 46 576 48 602 52 660 c 0
 53 676 67 690 85 690 c 2
 527 690 l 2
 539 690 543 685 547 676 c 0
 548 673 549 670 549 667 c 0
 549 660 545 653 540 646 c 2
 169 142 l 2
 160 130 158 120 158 116 c 0
 158 108 168 102 195 102 c 2
 352 102 l 2
 448 102 486 114 538 172 c 0
 541 175 546 178 549 178 c 0
 557 178 560 172 560 165 c 0
 560 160 558 155 556 150 c 0
 547 127 524 78 510 32 c 0
 503 8 491 0 465 0 c 2
 29 0 l 2
 20 0 14 4 14 19 c 0
 14 23 15 26 19 30 c 0
EndSplineSet
EndChar

StartChar: four
Encoding: 52 52 53
Width: 500
VWidth: 0
Flags: W
HStem: 151 70<109.003 296.86 384 409.764> 650 20G<364 375.5>
VStem: 300 84<13.1279 151 221 515.995>
LayerCount: 3
Fore
SplineSet
125 221 m 2
 285 221 l 2
 300 221 300 221 300 240 c 2
 300 489 l 2
 300 509 299 516 296 516 c 0
 292 516 285 501 276 489 c 0
 225 417 164 317 116 241 c 0
 112 234 109 229 109 226 c 0
 109 222 113 221 125 221 c 2
38 188 m 0
 124 349 248 530 352 662 c 0
 355 665 360 670 368 670 c 2
 371 670 l 2
 380 670 384 666 384 657 c 2
 384 221 l 1
 392 221 l 2
 398 221 405 221 410 224 c 0
 424 232 441 253 452 263 c 0
 457 268 458 269 463 269 c 0
 469 269 475 264 475 256 c 0
 475 248 462 220 456 206 c 0
 451 195 445 178 440 170 c 0
 432 154 432 151 411 151 c 2
 384 151 l 1
 384 47 l 2
 384 -6 386 -14 386 -14 c 1
 378 -23 l 1
 353 -31 325 -41 300 -50 c 0
 292 -53 282 -58 274 -58 c 0
 265 -58 259 -52 259 -43 c 0
 259 -34 268 -27 272 -22 c 0
 282 -11 288 -2 291 12 c 0
 296 36 297 64 297 91 c 2
 297 151 l 1
 58 151 l 2
 34 151 33 153 33 166 c 2
 33 173 l 2
 33 177 35 182 38 188 c 0
EndSplineSet
EndChar

StartChar: period
Encoding: 46 46 54
Width: 279
VWidth: 0
Flags: W
HStem: -20 126<92.6443 185.356>
VStem: 76 126<-3.35571 89.3557>
LayerCount: 3
Fore
SplineSet
76 43 m 0
 76 77 105 106 139 106 c 0
 173 106 202 77 202 43 c 0
 202 9 173 -20 139 -20 c 0
 105 -20 76 9 76 43 c 0
EndSplineSet
EndChar

StartChar: ae
Encoding: 230 230 55
Width: 644
VWidth: 0
Flags: W
HStem: -12 67<433.618 549.326> -12 52<136.322 237.168> 226 29<216.771 288.93> 236 28<367.125 458.531> 416 44<167.301 268.773 415.924 514.162>
VStem: 27 89<60.9935 170.501> 53 81<329.235 382.406> 291 76<132.051 225.939 264.159 358.884> 547 76<293.137 378.125>
LayerCount: 3
Fore
SplineSet
475 416 m 0x1980
 413 416 375 358 368 289 c 0
 367 284 367 279 367 276 c 0
 367 266 371 264 377 264 c 0
 381 264 387 265 393 266 c 0
 441 273 547 294 547 303 c 0
 547 340 523 416 475 416 c 0x1980
116 116 m 0x6d80
 116 73 147 40 185 40 c 0
 249 40 289 97 289 208 c 0
 289 221 287 226 284 226 c 0
 250 222 226 214 202 208 c 0
 158 196 116 166 116 116 c 0x6d80
165 -12 m 0
 97 -12 27 31 27 112 c 0
 27 158 42 187 87 207 c 0
 137 229 220 246 274 255 c 0x6d80
 289 257 291 259 291 266 c 0
 291 275 291 284 291 293 c 0
 291 360 282 416 217 416 c 0
 182 416 141 383 134 331 c 0
 133 322 131 303 122 303 c 0
 101 303 76 318 60 329 c 0
 53 334 53 340 53 347 c 0
 53 396 132 460 237 460 c 0
 293 460 328 440 347 406 c 0
 355 393 356 400 363 407 c 0
 396 440 429 460 477 460 c 0
 570 460 623 373 623 295 c 0
 623 290 622 282 620 279 c 0
 620 278 605 264 604 264 c 0
 526 250 437 241 393 236 c 0
 371 233 366 233 366 223 c 0
 366 219 366 213 367 205 c 0
 374 147 407 55 504 55 c 0
 568 55 599 92 609 92 c 0
 614 92 624 83 624 75 c 0
 624 61 552 -12 469 -12 c 0x9b80
 397 -12 345 28 323 77 c 0
 319 86 316 91 314 91 c 0
 311 91 307 83 301 74 c 0
 277 35 229 -12 165 -12 c 0
EndSplineSet
EndChar

StartChar: oe
Encoding: 339 339 56
Width: 766
VWidth: 0
Flags: W
HStem: -12 70<522.705 644.993> -12 45<178.57 304.824> 238 31<452.089 554.175> 416 44<176.4 307.315 500.093 605.975>
VStem: 20 101<120.527 326.785> 358 94<134.9 239.011 269.001 353> 643 87<299.601 373.558>
LayerCount: 3
Fore
SplineSet
563 460 m 0x7e
 669 460 730 371 730 294 c 0
 730 289 729 281 727 278 c 0
 727 277 712 263 711 263 c 0
 621 250 500 242 462 238 c 0
 447 237 449 238 450 225 c 0
 453 179 474 58 606 58 c 0
 666 58 706 104 716 104 c 0
 721 104 731 95 731 87 c 0
 731 73 654 -12 561 -12 c 0xbe
 500 -12 452 14 418 53 c 0
 408 65 405 74 401 74 c 0
 398 74 394 69 387 59 c 0
 355 14 299 -12 240 -12 c 0
 113 -12 20 91 20 225 c 0
 20 365 121 460 244 460 c 0
 316 460 363 433 392 383 c 0
 400 369 402 362 405 362 c 0
 408 362 411 368 419 381 c 0
 454 437 508 460 563 460 c 0x7e
241 416 m 0
 143 416 121 315 121 219 c 0
 121 128 150 33 244 33 c 0x7e
 335 33 358 134 358 221 c 0
 358 313 342 416 241 416 c 0
561 416 m 0
 496 416 460 361 453 293 c 0
 452 287 452 283 452 280 c 0
 452 271 455 269 461 269 c 0
 465 269 471 270 476 271 c 0
 528 278 643 300 643 309 c 0
 643 346 614 416 561 416 c 0
EndSplineSet
EndChar

StartChar: slash
Encoding: 47 47 57
Width: 416
VWidth: 488
Flags: W
DStem2: 39 -113 78 -152 0.343557 0.939132<-59.6482 907.357>
LayerCount: 3
Fore
SplineSet
20 -170 m 0
 20 -161 31 -136 39 -113 c 2
 39 -113 344 710 346 717 c 0
 351 732 357 735 375 735 c 0
 384 735 396 733 396 723 c 0
 396 714 387 692 382 679 c 2
 78 -152 l 2
 67 -183 61 -183 46 -183 c 0
 34 -183 20 -183 20 -170 c 0
EndSplineSet
EndChar

StartChar: hyphen
Encoding: 45 45 58
Width: 348
VWidth: 0
Flags: W
HStem: 117 195
VStem: 44 256
LayerCount: 3
Fore
SplineSet
44 134 m 2
 44 170 l 2
 44 191 62 202 82 211 c 0
 142 237 182 254 242 282 c 0
 261 291 273 312 286 312 c 0
 293 312 300 304 300 288 c 2
 300 252 l 2
 300 238 291 223 276 217 c 0
 212 190 173 174 108 144 c 24
 89 135 72 117 60 117 c 0
 51 117 44 125 44 134 c 2
EndSplineSet
EndChar

StartChar: comma
Encoding: 44 44 59
Width: 250
VWidth: 0
Flags: W
HStem: -173 274<70 137>
VStem: 136 69<-71.4651 39>
LayerCount: 3
Fore
SplineSet
137 101 m 0
 178 101 205 60 205 18 c 0
 205 -76 148 -127 82 -169 c 0
 78 -172 74 -173 70 -173 c 0
 58 -173 48 -162 48 -150 c 0
 48 -143 52 -136 59 -132 c 0
 121 -99 136 -62 136 -25 c 0
 136 -12 111 -12 94 4 c 0
 82 15 76 28 76 42 c 0
 76 72 96 101 137 101 c 0
EndSplineSet
EndChar

StartChar: colon
Encoding: 58 58 60
Width: 279
VWidth: 0
Flags: W
HStem: -20 126<92.6443 185.356> 317 126<92.6443 185.356>
VStem: 76 126<-3.35571 89.3557 333.644 426.356>
LayerCount: 3
Fore
SplineSet
76 380 m 4
 76 414 105 443 139 443 c 4
 173 443 202 414 202 380 c 4
 202 346 173 317 139 317 c 4
 105 317 76 346 76 380 c 4
76 43 m 0
 76 77 105 106 139 106 c 0
 173 106 202 77 202 43 c 0
 202 9 173 -20 139 -20 c 0
 105 -20 76 9 76 43 c 0
EndSplineSet
EndChar

StartChar: semicolon
Encoding: 59 59 61
Width: 279
VWidth: 0
Flags: W
HStem: 317 126<92.6443 185.356>
VStem: 76 129<4.51709 78.0935 335.75 424.25> 136 69<-71.4651 39>
LayerCount: 3
Fore
SplineSet
137 101 m 0xc0
 178 101 205 60 205 18 c 0xc0
 205 -76 148 -127 82 -169 c 0
 78 -172 74 -173 70 -173 c 0
 58 -173 48 -162 48 -150 c 0
 48 -143 52 -136 59 -132 c 0
 121 -99 136 -62 136 -25 c 0xa0
 136 -12 111 -12 94 4 c 0
 82 15 76 28 76 42 c 0
 76 72 96 101 137 101 c 0xc0
76 380 m 0
 76 414 105 443 139 443 c 0
 173 443 202 414 202 380 c 0
 202 346 173 317 139 317 c 0
 105 317 76 346 76 380 c 0
EndSplineSet
EndChar

StartChar: zero
Encoding: 48 48 62
Width: 500
VWidth: 0
Flags: W
HStem: -12 46<201.305 310.722> 626 44<188.11 296.072>
VStem: 31 96<151.479 486.013> 365 104<182.137 493.356>
LayerCount: 3
Fore
SplineSet
31 320 m 4
 31 563 141 670 250 670 c 4
 380 670 469 536 469 344 c 4
 469 143 382 -12 254 -12 c 4
 85 -12 31 146 31 320 c 4
127 372 m 4
 127 201 147 34 256 34 c 4
 359 34 365 184 365 330 c 4
 365 495 329 626 243 626 c 4
 153 626 127 510 127 372 c 4
EndSplineSet
EndChar

StartChar: parenleft
Encoding: 40 40 63
Width: 326
VWidth: 488
Flags: W
HStem: -214 21G<288.5 302.5>
VStem: 53 80<125.049 432.736>
LayerCount: 3
Fore
SplineSet
236 722 m 0
 264 752 284 772 293 772 c 0
 312 772 316 763 316 751 c 0
 316 743 301 730 281 706 c 0
 226 639 133 493 133 279 c 0
 133 65 226 -81 281 -148 c 0
 301 -172 316 -185 316 -193 c 0
 316 -205 312 -214 293 -214 c 0
 284 -214 264 -194 236 -164 c 0
 164 -84 53 76 53 279 c 0
 53 481 164 642 236 722 c 0
EndSplineSet
EndChar

StartChar: exclam
Encoding: 33 33 64
Width: 279
VWidth: 0
Flags: W
HStem: -20 126<92.6443 185.356>
VStem: 76 126<-3.35571 89.3557> 87 101<352.432 648.469> 95 84<247.436 615.894> 116 40<162.026 376.129>
LayerCount: 3
Fore
SplineSet
138 651 m 0xa0
 166 651 188 648 188 618 c 0xa0
 188 573 182 533 179 496 c 0x90
 172 389 162 302 156 174 c 0
 156 166 145 162 135 162 c 0
 125 162 116 166 116 174 c 0x88
 113 302 102 389 95 496 c 0x90
 92 533 87 573 87 618 c 8
 87 648 108 651 138 651 c 0xa0
76 43 m 0xc0
 76 77 105 106 139 106 c 0
 173 106 202 77 202 43 c 0
 202 9 173 -20 139 -20 c 0
 105 -20 76 9 76 43 c 0xc0
EndSplineSet
EndChar

StartChar: question
Encoding: 63 63 65
Width: 428
VWidth: 0
Flags: W
HStem: -20 126<172.644 265.356> 610 41<158.438 262.062>
VStem: 54 88<496.608 590.756> 156 126<-3.35571 89.3557> 173 44<171.586 298.139> 288 95.0061<448.525 585.778>
LayerCount: 3
Fore
SplineSet
217 242 m 0xec
 217 201 228 186 228 176 c 0
 228 167 215 159 206 159 c 0
 202 159 198 161 196 164 c 8
 177 193 173 215 173 250 c 0
 173 350 288 414 288 534 c 0
 288 583 248 610 209 610 c 0
 182 610 142 591 142 552 c 0
 142 536 146 531 146 522 c 0
 146 504 113 489 83 489 c 0
 66 489 54 510 54 528 c 0
 54 600 126 651 221 651 c 0
 321.422529394 651 383.006113515 597.612838921 383.006113515 511.488985719 c 0
 383.006113515 388.083382992 217 332.462783032 217 242 c 0xec
156 43 m 0xf4
 156 77 185 106 219 106 c 0
 253 106 282 77 282 43 c 0
 282 9 253 -20 219 -20 c 0
 185 -20 156 9 156 43 c 0xf4
EndSplineSet
EndChar

StartChar: quoteright
Encoding: 8217 8217 66
Width: 272
VWidth: 0
Flags: W
HStem: 404 244<76 140>
VStem: 135 76<488.947 536.24>
LayerCount: 3
Fore
SplineSet
140 648 m 0
 183 648 211 607 211 564 c 0
 211 506 174 456 128 426 c 0
 114 417 89 404 76 404 c 0
 67 404 58 409 58 425 c 0
 58 432 84 444 91 448 c 0
 114 460 135 483 135 515 c 0
 135 517 135 519 135 521 c 0
 134 532 79 539 79 588 c 0
 79 626 106 648 140 648 c 0
EndSplineSet
EndChar

StartChar: quoteleft
Encoding: 8216 8216 67
Width: 272
VWidth: 0
Flags: W
HStem: 404 244<129 193>
VStem: 58 76<515.76 563.053>
LayerCount: 3
Fore
SplineSet
129 404 m 0
 86 404 58 445 58 488 c 0
 58 546 95 596 141 626 c 0
 155 635 180 648 193 648 c 0
 202 648 211 643 211 627 c 0
 211 620 185 608 178 604 c 0
 155 592 134 569 134 537 c 0
 134 535 134 533 134 531 c 0
 135 520 190 513 190 464 c 0
 190 426 163 404 129 404 c 0
EndSplineSet
EndChar

StartChar: quotedblleft
Encoding: 8220 8220 68
Width: 506
VWidth: 0
Flags: W
HStem: 404 244<129 193 339 403>
VStem: 58 76<515.76 563.053> 268 76<515.76 563.053>
LayerCount: 3
Fore
SplineSet
129 404 m 0
 86 404 58 445 58 488 c 0
 58 546 95 596 141 626 c 0
 155 635 180 648 193 648 c 0
 202 648 211 643 211 627 c 0
 211 620 185 608 178 604 c 0
 155 592 134 569 134 537 c 0
 134 535 134 533 134 531 c 0
 135 520 190 513 190 464 c 0
 190 426 163 404 129 404 c 0
339 404 m 0
 296 404 268 445 268 488 c 0
 268 546 305 596 351 626 c 0
 365 635 390 648 403 648 c 0
 412 648 421 643 421 627 c 0
 421 620 395 608 388 604 c 0
 365 592 344 569 344 537 c 0
 344 535 344 533 344 531 c 0
 345 520 400 513 400 464 c 0
 400 426 373 404 339 404 c 0
EndSplineSet
EndChar

StartChar: quotedblright
Encoding: 8221 8221 69
Width: 506
VWidth: 0
Flags: W
HStem: 404 244<76 140 286 350>
VStem: 135 76<488.947 536.24> 345 76<488.947 536.24>
LayerCount: 3
Fore
SplineSet
350 648 m 0
 393 648 421 607 421 564 c 0
 421 506 384 456 338 426 c 0
 324 417 299 404 286 404 c 0
 277 404 268 409 268 425 c 0
 268 432 294 444 301 448 c 0
 324 460 345 483 345 515 c 0
 345 517 345 519 345 521 c 0
 344 532 289 539 289 588 c 0
 289 626 316 648 350 648 c 0
140 648 m 0
 183 648 211 607 211 564 c 0
 211 506 174 456 128 426 c 0
 114 417 89 404 76 404 c 0
 67 404 58 409 58 425 c 0
 58 432 84 444 91 448 c 0
 114 460 135 483 135 515 c 0
 135 517 135 519 135 521 c 0
 134 532 79 539 79 588 c 0
 79 626 106 648 140 648 c 0
EndSplineSet
EndChar

StartChar: endash
Encoding: 8211 8211 70
Width: 452
VWidth: 0
Flags: W
HStem: 185 53<10.0231 441.935>
LayerCount: 3
Fore
SplineSet
10 214 m 0
 10 236 13 238 37 238 c 2
 421 238 l 2
 441 238 442 236 442 208 c 0
 442 195 440 185 421 185 c 2
 38 185 l 2
 10 185 10 186 10 214 c 0
EndSplineSet
EndChar

StartChar: emdash
Encoding: 8212 8212 71
Width: 638
VWidth: 0
Flags: W
HStem: 185 53<10.0231 627.935>
LayerCount: 3
Fore
SplineSet
10 214 m 0
 10 236 13 238 37 238 c 2
 607 238 l 2
 627 238 628 236 628 208 c 0
 628 195 626 185 607 185 c 2
 38 185 l 2
 10 185 10 186 10 214 c 0
EndSplineSet
EndChar

StartChar: parenright
Encoding: 41 41 72
Width: 326
VWidth: 488
Flags: W
HStem: -214 21G<61.5 75.5>
VStem: 231 80<125.264 432.951>
LayerCount: 3
Fore
SplineSet
128 -164 m 0
 100 -194 80 -214 71 -214 c 0
 52 -214 48 -205 48 -193 c 0
 48 -185 63 -172 83 -148 c 0
 138 -81 231 65 231 279 c 0
 231 493 138 639 83 706 c 0
 63 730 48 743 48 751 c 0
 48 763 52 772 71 772 c 0
 80 772 100 752 128 722 c 0
 200 642 311 482 311 279 c 0
 311 77 200 -84 128 -164 c 0
EndSplineSet
EndChar

StartChar: plus
Encoding: 43 43 73
Width: 527
VWidth: 488
Flags: W
HStem: 188 44<31.0031 241 286.086 495.999>
VStem: 241 45<-21.9956 187.996 232 441.995>
LayerCount: 3
Fore
SplineSet
31 212 m 0
 31 225 31 232 49 232 c 2
 219 232 l 2
 238 232 241 240 241 251 c 2
 241 427 l 2
 241 442 248 442 262 442 c 0
 276 442 286 442 286 422 c 2
 286 259 l 2
 286 245 287 232 303 232 c 2
 480 232 l 2
 496 232 496 225 496 211 c 0
 496 194 496 188 475 188 c 2
 303 188 l 2
 286 188 286 182 286 170 c 2
 286 -5 l 2
 286 -22 277 -22 266 -22 c 0
 246 -22 241 -22 241 -4 c 2
 241 170 l 2
 241 188 234 188 217 188 c 2
 48 188 l 2
 30 188 31 195 31 212 c 0
EndSplineSet
EndChar

StartChar: numbersign
Encoding: 35 35 74
Width: 533
VWidth: 488
Flags: W
HStem: 121 42<59.0001 150.999 201.451 306.913 356.028 474.98> 305 42<59.0175 176.998 228.001 332 383.001 474.89>
VStem: 151 42<-35.5 120.692> 158 43<163 295.956> 177 42<168.29 305> 186 42<347 497.532> 307 42<-34.4978 121> 341 42<347 504.36>
LayerCount: 3
Fore
SplineSet
59 139 m 0xe2
 59 140 59 141 59 142 c 0
 59 156 59 163 73 163 c 2
 155 163 l 2
 157 163 158 163 158 165 c 0xd0
 164 210 177 295 177 300 c 0
 177 304 174 305 170 305 c 2
 75 305 l 2
 65 305 59 307 59 325 c 0
 59 339 62 347 75 347 c 2
 177 347 l 2xc8
 183 347 186 349 186 354 c 0
 212 540 209 538 212 543 c 0
 216 549 220 550 234 550 c 0
 241 550 254 549 254 538 c 0
 254 532 228 358 228 352 c 0
 228 348 229 347 234 347 c 2
 332 347 l 2
 336 347 340 348 341 354 c 0
 367 540 366 540 369 544 c 0
 373 550 380 550 392 550 c 0
 400 550 408 550 408 540 c 0
 408 531 383 361 383 352 c 0xc5
 383 349 384 347 388 347 c 2
 457 347 l 2
 471 347 475 339 475 322 c 0
 475 307 469 305 460 305 c 2
 379 305 l 2
 375 305 375 302 374 299 c 1
 368 256 356 173 356 169 c 0
 356 165 358 163 363 163 c 2
 458 163 l 2
 468 163 475 161 475 143 c 0
 475 128 471 121 458 121 c 2
 360 121 l 2
 351 121 350 117 349 111 c 0
 324 -66 331 -66 303 -66 c 0
 289 -66 284 -60 284 -53 c 0
 284 -47 307 110 307 115 c 0
 307 120 304 121 300 121 c 2
 234 121 l 2
 195 121 194 119 193 113 c 0
 170 -58 170 -55 169 -58 c 0
 165 -64 160 -66 146 -66 c 0
 137 -66 128 -63 128 -53 c 0
 128 -47 151 109 151 114 c 0
 151 119 149 121 143 121 c 2
 73 121 l 2
 60 121 59 129 59 139 c 0xe2
201 168 m 0
 201 164 204 163 209 163 c 2
 304 163 l 2
 308 163 313 163 314 170 c 0
 327 265 332 292 332 300 c 0
 332 303 332 305 326 305 c 2
 228 305 l 2xc4
 222 305 220 302 219 298 c 0xc8
 213 255 201 173 201 168 c 0
EndSplineSet
EndChar

StartChar: percent
Encoding: 37 37 75
Width: 771
VWidth: 488
Flags: W
HStem: -78 32<484.398 555.089> 220 27<160.083 227.967> 262 31<529.33 601.777> 484 24<367.961 458.942> 548 29<204.131 275.587>
VStem: 59 72<271.022 440.735> 297 63<349.441 494> 386 71<-22.7545 162.796> 626 66<65.554 244.321>
LayerCount: 3
Fore
SplineSet
59 344 m 0
 59 441 138 577 258 577 c 0
 333 577 346 508 408 508 c 0
 489 508 589 611 619 638 c 0
 625 644 632 646 637 646 c 0
 644 646 646 642 646 637 c 0
 646 630 641 621 638 616 c 0
 167 -88 184 -85 172 -89 c 0
 169 -90 165 -91 162 -91 c 0
 145 -91 129 -78 129 -67 c 0
 129 -53 138 -42 169 3 c 2
 334 240 l 2
 462 424 536 516 536 524 c 0
 536 527 534 528 532 528 c 0
 525 528 471 484 410 484 c 0
 386 484 365 494 361 494 c 0
 360 494 360 494 360 493 c 0
 360 491 362 484 362 474 c 0
 362 401 353 362 311 300 c 0
 288 266 248 220 169 220 c 0
 133 220 59 256 59 344 c 0
131 364 m 0
 131 291 153 247 191 247 c 0
 260 247 297 364 297 456 c 0
 297 508 279 548 250 548 c 0
 170 548 131 449 131 364 c 0
386 64 m 0
 386 168 459 293 584 293 c 0
 660 293 692 238 692 170 c 0
 692 62 612 -78 507 -78 c 0
 425 -78 386 -12 386 64 c 0
457 73 m 0
 457 0 479 -46 517 -46 c 0
 581 -46 626 73 626 165 c 0
 626 217 605 262 576 262 c 0
 496 262 457 158 457 73 c 0
EndSplineSet
EndChar

StartChar: less
Encoding: 60 60 76
Width: 527
VWidth: 488
Flags: W
LayerCount: 3
Fore
SplineSet
41 211 m 0
 41 221 41 225 56 231 c 0
 463 379 462 381 468 381 c 0
 477 381 487 377 487 356 c 0
 487 347 479 342 471 340 c 2
 166 229 l 2
 147 222 124 213 124 208 c 0
 124 203 146 197 166 190 c 2
 476 78 l 2
 482 76 487 72 487 65 c 0
 487 57 481 41 463 41 c 0
 457 41 460 41 55 188 c 0
 41 193 41 197 41 211 c 0
EndSplineSet
EndChar

StartChar: equal
Encoding: 61 61 77
Width: 527
VWidth: 488
Flags: W
HStem: 90 45<31.0031 495.998> 286 44<31.0031 495.999>
LayerCount: 3
Fore
SplineSet
31 114 m 0
 31 127 31 135 49 135 c 2
 480 135 l 2
 496 135 496 128 496 114 c 0
 496 97 496 90 475 90 c 2
 48 90 l 2
 30 90 31 97 31 114 c 0
31 310 m 0
 31 323 31 330 49 330 c 2
 480 330 l 2
 496 330 496 323 496 309 c 0
 496 292 496 286 475 286 c 2
 48 286 l 2
 30 286 31 293 31 310 c 0
EndSplineSet
EndChar

StartChar: greater
Encoding: 62 62 78
Width: 527
VWidth: 488
Flags: W
LayerCount: 3
Fore
SplineSet
41 65 m 0
 41 72 45 76 51 78 c 2
 362 190 l 2
 382 197 404 203 404 208 c 0
 404 213 381 222 362 229 c 2
 56 340 l 2
 48 342 41 347 41 356 c 0
 41 377 50 381 59 381 c 0
 65 381 64 379 471 231 c 0
 486 225 487 221 487 211 c 0
 487 197 486 193 472 188 c 0
 67 41 70 41 64 41 c 0
 46 41 41 57 41 65 c 0
EndSplineSet
EndChar

StartChar: asterisk
Encoding: 42 42 79
Width: 431
VWidth: 0
Flags: W
HStem: 401 94<167.656 186.997 244.065 263.812>
VStem: 184 63<282.507 400.996 495.004 613.501>
LayerCount: 3
Fore
SplineSet
59 383 m 0
 59 405 167 438 167 447 c 0
 167 458 59 492 59 513 c 0
 59 522 71 548 91 548 c 0
 107 548 173 495 182 495 c 0
 185 495 187 500 187 514 c 0
 187 535 184 567 184 593 c 0
 184 610 189 614 210 614 c 0
 240 614 247 612 247 578 c 0
 247 560 243 533 243 513 c 0
 243 499 245 495 248 495 c 0
 259 495 328 549 340 549 c 0
 358 549 373 526 373 514 c 0
 373 493 264 458 264 448 c 0
 264 436 373 404 373 383 c 0
 373 373 360 348 339 348 c 0
 324 348 256 401 249 401 c 0
 245 401 244 396 244 382 c 0
 244 363 247 339 247 324 c 0
 247 286 244 282 211 282 c 0
 196 282 184 285 184 306 c 0
 184 324 187 355 187 378 c 0
 187 395 186 401 182 401 c 0
 173 401 103 348 91 348 c 0
 72 348 59 373 59 383 c 0
EndSplineSet
EndChar

StartChar: bracketleft
Encoding: 91 91 80
Width: 315
VWidth: 488
Flags: W
HStem: -204 45<169.135 297> 718 45<169.135 297>
VStem: 99 70<-159 718>
LayerCount: 3
Fore
SplineSet
297 -180 m 2
 297 -184 l 2
 297 -200 292 -204 281 -204 c 2
 132 -204 l 2
 111 -204 99 -198 99 -179 c 2
 99 738 l 2
 99 757 111 763 132 763 c 2
 281 763 l 2
 292 763 297 759 297 743 c 2
 297 739 l 2
 297 719 292 718 277 718 c 2
 181 718 l 2
 171 718 169 703 169 691 c 2
 169 -132 l 2
 169 -144 171 -159 181 -159 c 2
 277 -159 l 2
 292 -159 297 -160 297 -180 c 2
EndSplineSet
EndChar

StartChar: backslash
Encoding: 92 92 81
Width: 416
VWidth: 488
Flags: W
DStem2: 70 717 34 679 0.343557 -0.939132<-22.4053 941.784>
LayerCount: 3
Fore
SplineSet
20 723 m 0
 20 733 32 735 41 735 c 0
 59 735 65 732 70 717 c 0
 72 710 377 -113 377 -113 c 2
 385 -136 396 -158 396 -167 c 0
 396 -183 374 -183 363 -183 c 0
 354 -183 349 -181 338 -152 c 2
 34 679 l 2
 29 692 20 714 20 723 c 0
EndSplineSet
EndChar

StartChar: bracketright
Encoding: 93 93 82
Width: 301
VWidth: 488
Flags: W
HStem: -204 45<12 139.865> 718 45<12 139.865>
VStem: 140 70<-159 718>
LayerCount: 3
Fore
SplineSet
12 739 m 2
 12 743 l 2
 12 759 17 763 28 763 c 2
 177 763 l 6
 198 763 210 757 210 738 c 6
 210 -179 l 6
 210 -198 198 -204 177 -204 c 6
 28 -204 l 2
 17 -204 12 -200 12 -184 c 2
 12 -180 l 2
 12 -160 17 -159 32 -159 c 2
 128 -159 l 2
 138 -159 140 -144 140 -132 c 2
 140 691 l 2
 140 703 138 718 128 718 c 2
 32 718 l 2
 17 718 12 719 12 739 c 2
EndSplineSet
EndChar

StartChar: asciicircum
Encoding: 94 94 83
Width: 333
VWidth: 488
Flags: W
HStem: 468 53<143.977 179.554>
VStem: 29 264<324 334>
LayerCount: 3
Fore
SplineSet
29 331 m 0
 29 336 38 350 42 356 c 0
 129 502 135 521 162 521 c 0
 190 521 196 501 282 356 c 0
 286 350 293 334 293 329 c 0
 293 322 284 321 275 321 c 0
 269 321 264 321 260 321 c 0
 243 321 238 339 230 354 c 0
 185 437 171 468 162 468 c 0
 152 468 139 437 94 354 c 0
 86 339 80 322 63 322 c 0
 60 322 54 322 49 322 c 0
 39 322 29 324 29 331 c 0
EndSplineSet
EndChar

StartChar: underscore
Encoding: 95 95 84
Width: 213
VWidth: 488
Flags: W
HStem: -62 45<0.00341797 212.998>
VStem: 0 213<-62 -17>
LayerCount: 3
Fore
SplineSet
0 -38 m 0
 0 -25 1 -17 19 -17 c 2
 197 -17 l 2
 213 -17 213 -24 213 -38 c 0
 213 -55 213 -62 192 -62 c 2
 18 -62 l 2
 0 -62 0 -55 0 -38 c 0
EndSplineSet
EndChar

StartChar: braceleft
Encoding: 123 123 85
Width: 273
VWidth: 488
Flags: W
HStem: -184 43<156.685 243.462> 707 43<156.685 243.462>
VStem: 24.0342 108.966<260.458 304.759> 69 64<-124.237 259.165 306.13 690.237>
LayerCount: 3
Fore
SplineSet
133 681 m 2xd0
 133 -115 l 2
 133 -125 180 -124 212 -141 c 0
 219 -145 246 -152 246 -172 c 0
 246 -181.231445312 235.578125 -184 227 -184 c 0
 224 -184 191 -178 155 -178 c 0
 127.008796692 -178 81 -186 81 -186 c 1
 69 -174 l 1
 69 223 l 2xd0
 69 264.350585938 24.0341796875 260 24.0341796875 282.499023438 c 0xe0
 24.0341796875 304 69 302 69 343 c 2
 69 740 l 1
 81 752 l 1
 81 752 127.008789062 744 155 744 c 0
 191 744 224 750 227 750 c 0
 235.578125 750 246 747.231445312 246 738 c 0
 246 718 219 711 212 707 c 0
 180 690 133 691 133 681 c 2xd0
EndSplineSet
EndChar

StartChar: bar
Encoding: 124 124 86
Width: 209
VWidth: 488
Flags: W
VStem: 78 57<-208.956 761.956>
LayerCount: 3
Fore
SplineSet
78 -184 m 2
 78 746 l 2
 78 762 88 762 102 762 c 2
 108 762 l 2
 127 762 135 761 135 737 c 2
 135 -193 l 2
 135 -209 125 -209 111 -209 c 2
 105 -209 l 2
 86 -209 78 -208 78 -184 c 2
EndSplineSet
EndChar

StartChar: braceright
Encoding: 125 125 87
Width: 273
VWidth: 488
Flags: W
HStem: -184 43<29.5378 116.315> 707 43<29.5378 116.315>
VStem: 140 109<261.31 305.737> 140 64<-124.237 259.926 307.027 690.237>
LayerCount: 3
Fore
SplineSet
140 -115 m 2xd0
 140 681 l 2
 140 691 93 690 61 707 c 0
 54 711 27 718 27 738 c 0
 27 747 37 750 46 750 c 0
 49 750 82 744 118 744 c 0
 146 744 192 752 192 752 c 1
 204 740 l 1
 204 343 l 2xd0
 204 302 249 306 249 284 c 0xe0
 249 262 204 264 204 223 c 2
 204 -174 l 1
 192 -186 l 1
 192 -186 146 -178 118 -178 c 0
 82 -178 49 -184 46 -184 c 0
 37 -184 27 -181 27 -172 c 0
 27 -152 54 -145 61 -141 c 0
 93 -124 140 -125 140 -115 c 2xd0
EndSplineSet
EndChar

StartChar: asciitilde
Encoding: 126 126 88
Width: 380
VWidth: 488
Flags: W
HStem: 164 56<194.336 292.013> 210 55<84.5882 171.179>
VStem: 29 322
LayerCount: 3
Fore
SplineSet
29 172 m 0x60
 29 175 78 265 134 265 c 0x60
 180 265 205 220 251 220 c 0
 299 220 320 269 331 269 c 0
 344 269 351 262 351 254 c 0
 351 249 299 164 234 164 c 0xa0
 181 164 163 210 121 210 c 0
 75 210 58 156 49 156 c 0
 36 156 29 160 29 172 c 0x60
EndSplineSet
EndChar

StartChar: one
Encoding: 49 49 89
Width: 500
VWidth: 0
Flags: W
HStem: -1 21G<174 190 375 389> 578 28<140.036 206.83> 650 20G<290.5 317.5>
VStem: 232 94<46.1318 563.28>
LayerCount: 3
Fore
SplineSet
220 53 m 0
 232 74 232 139 232 184 c 2
 232 508 l 2
 232 526 231 541 225 550 c 0
 210 571 183 574 157 578 c 0
 148 579 140 582 140 591 c 0
 140 598 143 605 153 606 c 0
 230 617 267 638 314 670 c 1
 321 668 327 663 331 657 c 1
 326 589 326 533 326 462 c 2
 326 184 l 2
 326 138 328 90 336 64 c 0
 349 23 404 37 404 14 c 0
 404 1 394 -1 384 -1 c 0
 366 -1 316 1 279 1 c 0
 245 1 201 -1 179 -1 c 0
 169 -1 159 1 159 14 c 0
 159 35 206 29 220 53 c 0
EndSplineSet
EndChar

StartChar: two
Encoding: 50 50 90
Width: 500
VWidth: 0
Flags: W
HStem: 0 96<183.004 403.333> 584 86<149.1 261.218>
VStem: 311 102<396.499 535.125>
LayerCount: 3
Fore
SplineSet
242 670 m 0
 340 670 413 592 413 494 c 0
 413 370 316 269 190 115 c 0
 185 109 183 105 183 102 c 0
 183 97 189 96 199 96 c 2
 306 96 l 2
 362 96 409 107 450 159 c 0
 454 164 458 170 465 170 c 0
 472 170 479 164 479 157 c 0
 479 150 474 143 471 138 c 2
 408 22 l 2
 400 7 386 0 368 0 c 2
 66 0 l 2
 58 0 54 9 54 17 c 0
 54 21 55 26 58 29 c 0
 154 132 311 298 311 473 c 0
 311 532 258 584 198 584 c 0
 132 584 101 550 61 485 c 0
 59 481 55 479 51 479 c 0
 42 479 31 485 31 497 c 0
 31 512 43 538 60 565 c 0
 91 615 149 670 242 670 c 0
EndSplineSet
EndChar

StartChar: three
Encoding: 51 51 91
Width: 500
VWidth: 0
Flags: W
HStem: -12 51<115.002 285.267> 332 26<216.003 253.951> 606 64<176.593 296.325>
VStem: 338 76<473.324 564.117> 362 100<120.01 272.823>
LayerCount: 3
Fore
SplineSet
338 504 m 0xf0
 338 554 294 606 236 606 c 0
 176 606 139 574 105 522 c 0
 103 520 100 518 97 518 c 0
 88 518 77 526 77 535 c 0
 77 548 89 565 96 576 c 0
 130 627 186 670 274 670 c 0
 344 670 414 626 414 554 c 0xf0
 414 460 333 403 333 394 c 0
 333 387 462 362 462 208 c 0
 462 80 336 -12 218 -12 c 0
 163 -12 89 11 54 51 c 0
 52 54 51 57 51 61 c 0
 51 72 59 83 68 83 c 0
 70 83 72 83 74 82 c 0
 116 59 132 39 216 39 c 0
 298 39 362 116 362 206 c 0xe8
 362 278 303 330 226 332 c 0
 220 332 216 339 216 345 c 0
 216 351 219 356 224 358 c 0
 285 376 338 436 338 504 c 0xf0
EndSplineSet
EndChar

StartChar: AE
Encoding: 198 198 92
Width: 930
VWidth: 0
Flags: W
HStem: -1 33<166.542 226.885> 1 47<566.506 811.961> 233 53<245.005 453> 334 36<552 754.91> 439 20G<804.5 820.5> 643 49<413.292 453 554.272 789.254>
VStem: 14 139<7.5 87.5> 453 99<62.9948 233 286 334 370 640.021> 862 30<527.366 569.088>
DStem2: 88 87 164 122 0.461178 0.887307<25.1955 201.948 256.288 602.79>
LayerCount: 3
Fore
SplineSet
290 677 m 0xbf80
 290 690 300 692 310 692 c 0
 332 692 381 690 415 690 c 2
 500 690 l 2
 645 690 715 691 857 691 c 0
 868 691 882 690 882 679 c 0
 883 651 886 637 888 600 c 0
 889 587 892 544 892 542 c 0
 892 532 886 527 880 527 c 0
 875 527 867 530 862 542 c 0
 841 591 810 617 769 629 c 0
 740 637 697 643 625 643 c 2
 609 643 l 2
 576 643 555 640 554 619 c 0
 553 602 552 574 552 512 c 2
 552 370 l 1
 587 370 l 2
 633 370 729 373 751 385 c 0
 794 409 795 459 814 459 c 0
 827 459 829 451 829 443 c 0
 829 428 815 387 815 352 c 0
 815 317 829 276 829 261 c 0
 829 253 827 245 814 245 c 0
 795 245 794 295 751 319 c 0
 729 331 633 334 587 334 c 2
 552 334 l 1
 552 173 l 2
 552 69 553 48 655 48 c 0
 749 48 806 55 865 100 c 0
 884 115 891 123 911 145 c 0
 918 153 924 157 929 157 c 0
 934 157 941 154 941 147 c 0
 941 137 924 95 920 84 c 0
 904 44 912 57 892 12 c 0
 887 0 880 0 868 0 c 0
 728 0 643 1 500 1 c 0x7f80
 466 1 417 -1 395 -1 c 0
 385 -1 375 1 375 14 c 0
 375 35 420 29 436 52 c 0
 448 69 453 77 453 184 c 2
 453 233 l 1
 245 233 l 2
 214 233 215 233 204 209 c 2
 164 122 l 2
 157 108 153 94 153 81 c 0
 153 58 167 38 201 32 c 0
 215 29 227 25 227 14 c 0
 227 1 217 -1 207 -1 c 0xbf80
 185 -1 151 1 117 1 c 0x7f80
 83 1 56 -1 34 -1 c 0
 24 -1 14 1 14 14 c 0
 14 35 33 28 61 49 c 0
 72 57 80 71 88 87 c 2
 338 568 l 2
 345 582 356 608 356 628 c 0
 356 664 290 653 290 677 c 0xbf80
412 619 m 2
 254 315 l 2
 249 305 245 299 245 294 c 0
 245 288 252 286 273 286 c 2
 453 286 l 1
 453 625 l 2
 453 636 451 643 439 643 c 0
 424 643 419 631 412 619 c 2
EndSplineSet
EndChar

StartChar: OE
Encoding: 338 338 93
Width: 983
VWidth: 0
Flags: W
HStem: -6 40<260.64 470.231> 1 47<586.506 831.961> 334 36<572 774.91> 439 20G<824.5 840.5> 643 47<574.272 817.875> 656 38<270.419 440.521>
VStem: 21 123<214.276 476.134> 473 99<84.3029 334 370 627.593> 882 30<527.366 569.623>
LayerCount: 3
Fore
SplineSet
356 694 m 0xb780
 407 694 462 690 520 690 c 0
 665 690 735 691 877 691 c 0
 888 691 902 690 902 679 c 0
 903 651 906 637 908 600 c 0
 909 587 912 544 912 542 c 0
 912 532 906 527 900 527 c 0
 895 527 887 530 882 542 c 0
 861 591 830 622 789 634 c 0
 760 642 717 643 645 643 c 2
 629 643 l 2
 596 643 575 640 574 619 c 0
 573 602 572 574 572 512 c 2
 572 370 l 1
 607 370 l 2
 653 370 749 373 771 385 c 0
 814 409 815 459 834 459 c 0
 847 459 849 451 849 443 c 0
 849 428 835 387 835 352 c 0
 835 317 849 276 849 261 c 0
 849 253 847 245 834 245 c 0
 815 245 814 295 771 319 c 0
 749 331 653 334 607 334 c 2
 572 334 l 1
 572 173 l 2
 572 69 573 48 675 48 c 0
 769 48 826 55 885 100 c 0
 904 115 911 123 931 145 c 0
 938 153 944 157 949 157 c 0
 954 157 961 154 961 147 c 0
 961 137 944 95 940 84 c 0
 924 44 932 57 912 12 c 0
 907 0 900 0 888 0 c 0
 748 0 663 1 520 1 c 0x7b80
 434 1 387 -6 345 -6 c 0
 254 -6 21 41 21 357 c 0
 21 532 153 694 356 694 c 0xb780
473 553 m 2
 473 653 410 656 352 656 c 0
 212 656 144 534 144 352 c 0
 144 202 174 34 348 34 c 0xb780
 432 34 473 78 473 184 c 2
 473 553 l 2
EndSplineSet
EndChar

StartChar: five
Encoding: 53 53 94
Width: 500
VWidth: 0
Flags: W
HStem: -12 38<50.7782 230.356> 356 85<158.684 279.678> 356 76<158.565 238.968> 681 20G<412 419>
VStem: 133 25<516 544.621> 342 90<144.32 295.356>
LayerCount: 3
Fore
SplineSet
158 642 m 0xdc
 244 654 286 656 366 672 c 0
 376 674 388 684 398 692 c 0
 403 696 409 701 415 701 c 0
 423 701 426 695 426 688 c 0
 426 683 425 678 423 674 c 0
 410 643 400 620 388 598 c 0
 379 581 356 578 319 573 c 0
 286 569 241 564 191 557 c 0
 167 554 171 545 167 524 c 0
 162 497 160 471 158 447 c 0
 157 432 160 429 172 432 c 0xbc
 195 438 218 441 240 441 c 0
 346 441 432 374 432 246 c 0
 432 103 315 -12 167 -12 c 0
 118 -12 84 -10 48 8 c 0
 45 10 43 14 43 18 c 0
 43 28 49 38 59 37 c 0
 90 35 114 26 148 26 c 0
 258 26 342 112 342 218 c 0
 342 305 278 356 206 356 c 0
 171 356 144 349 114 333 c 1
 107 334 103 337 98 344 c 1
 110 442 120 516 133 616 c 0
 135 629 147 640 158 642 c 0xdc
EndSplineSet
EndChar

StartChar: six
Encoding: 54 54 95
Width: 500
VWidth: 0
Flags: W
HStem: -12 46<200.273 327.23> 381 48<188.472 309.896> 648 36<348.535 408.842>
VStem: 29 107<140.498 326.61> 374 98<112.915 299.292>
LayerCount: 3
Fore
SplineSet
29 255 m 0
 29 554 295 684 391 684 c 0
 404 684 409 674 409 663 c 0
 409 656 407 650 400 648 c 0
 252 613 193 518 153 414 c 0
 149 405 147 395 145 386 c 0
 144 381 151 376 154 379 c 0
 163 390 200 429 274 429 c 0
 401 429 472 337 472 215 c 0
 472 80 376 -12 249 -12 c 0
 117 -12 29 115 29 255 c 0
374 184 m 0
 374 248 351 381 249 381 c 0
 189 381 157 340 144 304 c 0
 138 288 136 271 136 253 c 0
 136 162 156 101 188 66 c 0
 208 44 235 34 262 34 c 0
 340 34 374 96 374 184 c 0
EndSplineSet
EndChar

StartChar: seven
Encoding: 55 55 96
Width: 485
VWidth: 0
Flags: W
HStem: 562 98<94.8183 377.999>
VStem: 160 112<-18.4287 166.119>
LayerCount: 3
Fore
SplineSet
26 516 m 2
 67 635 l 2
 75 658 83 660 107 660 c 2
 440 660 l 2
 443 660 461 659 461 641 c 0
 461 626 436 569 404 503 c 0
 371 436 330 361 303 280 c 0
 284 224 272 167 272 120 c 0
 272 39 281 7 281 -10 c 0
 281 -24 270 -27 248 -28 c 0
 239 -28 189 -31 187 -31 c 0
 162 -31 160 -11 160 32 c 0
 160 187 251 326 322 440 c 0
 340 470 378 541 378 551 c 0
 378 560 376 562 366 562 c 2
 171 562 l 2
 96 562 76 524 59 495 c 0
 54 486 48 483 44 483 c 0
 28 483 23 491 23 501 c 0
 23 506 25 512 26 516 c 2
EndSplineSet
EndChar

StartChar: eight
Encoding: 56 56 97
Width: 527
VWidth: 0
Flags: W
HStem: -12 54<186.734 346.055> 626 44<175.519 324.343>
VStem: 48 73<107.659 243.87> 69 64<459.957 578.756> 384 60<435.811 564.767> 406 67<107.931 226.512>
LayerCount: 3
Fore
SplineSet
48 162 m 0xe4
 48 277 158 326 158 332 c 0
 158 342 69 363 69 482 c 0
 69 602 148 670 264 670 c 0
 407 670 444 586 444 520 c 0xd8
 444 414 360 372 360 368 c 0
 360 355 473 344 473 193 c 0
 473 108 399 -12 266 -12 c 0
 158 -12 48 45 48 162 c 0xe4
121 190 m 0xe4
 121 104 175 42 270 42 c 0
 336 42 406 87 406 160 c 0
 406 225 359 256 327 269 c 0
 260 296 209 316 195 316 c 0
 187 316 121 271 121 190 c 0xe4
133 516 m 0xd8
 133 458 188 426 241 406 c 0
 277 392 318 382 320 382 c 0
 329 382 384 418 384 508 c 0
 384 535 348 626 252 626 c 0
 200 626 133 600 133 516 c 0xd8
EndSplineSet
EndChar

StartChar: nine
Encoding: 57 57 98
Width: 527
VWidth: 292
Flags: W
HStem: -27 36<103.158 170.104> 222.815 49.185<203.977 319.876> 624 46<187.925 314.436>
VStem: 43 98<353.557 541.972> 379 99<320.571 513.123>
LayerCount: 3
Fore
SplineSet
478 391 m 0
 478 72 217 -27 121 -27 c 0
 108 -27 103 -17 103 -6 c 0
 103 1 105 7 112 9 c 0
 260 44 336 135 362 238 c 0
 363 241 367 259 367 269 c 0
 367 276 365 277 361 273 c 0
 351.033807126 260.819097599 297.720319411 222.815026709 231.747394826 222.815026709 c 0
 111.481390166 222.815026709 43 318.018383117 43 437 c 0
 43 572 132 670 260 670 c 0
 399 670 478 531 478 391 c 0
141 468 m 0
 141 404 164 272 266 272 c 0
 326 272 358 312 371 348 c 0
 377 364 379 381 379 399 c 0
 379 531 336 624 254 624 c 0
 171 624 141 556 141 468 c 0
EndSplineSet
EndChar

StartChar: dollar
Encoding: 36 36 99
Width: 500
VWidth: 0
Flags: W
HStem: -5 44<146.829 227> 620 38<167.302 225.779 278.757 347.102> 683 20G<248 258>
VStem: 50 68<454.316 572.346> 227 50<-142 -4.7937 39.0044 269.997 401.865 619.999 662.001 702.714> 397 65<92.111 212.141>
LayerCount: 3
Fore
SplineSet
47 72 m 0
 47 73 40 145 40 171 c 0
 40 190 50 189 55 189 c 0
 65 189 72 162 83 140 c 0
 106 90 152 39 214 39 c 0
 223 39 227 42 227 51 c 2
 227 282 l 2
 227 295 212 300 197 307 c 0
 126 337 50 386 50 492 c 0
 50 590 129 647 214 658 c 0
 230 660 224 678 227 692 c 0
 228 698 243 703 253 703 c 0
 263 703 275 698 277 692 c 0
 281 678 273 665 296 662 c 0
 411 649 429 616 429 612 c 2
 429 567 l 2
 429 531 428 489 416 489 c 0
 407 489 404 506 397 526 c 0
 392 542 385 559 384 561 c 0
 364 604 324 618 286 620 c 0
 277 620 277 619 277 611 c 2
 277 385 l 2
 277 379 278 376 285 373 c 0
 421 318 462 275 462 177 c 0
 462 63 374 19 302 0 c 0
 284 -5 277 -2 277 -15 c 0
 277 -46 280 -91 280 -124 c 0
 280 -136 274 -142 256 -142 c 2
 243 -142 l 2
 227 -142 224 -132 224 -124 c 0
 224 -93 227 -39 227 -14 c 0
 227 -8 227 -5 216 -5 c 0
 178 -5 90 8 62 42 c 0
 52 54 47 59 47 72 c 0
118 512 m 0
 118 464 158 422 216 402 c 0
 224 399 227 404 227 410 c 2
 227 612 l 2
 227 619 223 620 217 620 c 0
 192 618 118 594 118 512 c 0
277 54 m 2
 277 45 281 39 286 39 c 0
 292 39 397 55 397 154 c 0
 397 238 287 270 284 270 c 0
 279 270 277 266 277 257 c 2
 277 54 l 2
EndSplineSet
EndChar

StartChar: bullet
Encoding: 8226 8226 100
Width: 551
VWidth: 0
Flags: W
HStem: 127 314<186.611 341.389>
VStem: 107 314<206.611 361.389>
LayerCount: 3
Fore
SplineSet
107 284 m 0
 107 369 179 441 264 441 c 0
 349 441 421 369 421 284 c 0
 421 199 349 127 264 127 c 0
 179 127 107 199 107 284 c 0
EndSplineSet
EndChar

StartChar: dagger
Encoding: 8224 8224 101
Width: 557
VWidth: 0
Flags: W
HStem: 429 109<77.6988 146.243 398.839 477.056> 459 42<132.298 252.954 301.023 409.892> 650 20G<257.5 283>
VStem: 214 127<252.25 333.298 606.912 665.605> 255 45<-156 65.2842 333.298 458.999 501.068 604.5>
LayerCount: 3
Fore
SplineSet
75 483 m 0xb0
 75 497 75 538 93 538 c 0xb0
 101 538 152 501 243 501 c 0
 249 501 255 502 255 507 c 0
 255 580 215 637 215 651 c 0
 215 662 239 670 276 670 c 0
 290 670 338 670 338 652 c 0
 338 644 300 582 300 506 c 0x68
 300 502 303 500 306 500 c 0
 381 500 448 540 462 540 c 0
 473 540 480 523 480 486 c 0
 480 472 480 431 462 431 c 0
 454 431 415 459 308 459 c 0
 304 459 301 459 301 455 c 0
 301 325 341 312 341 303 c 0
 341 278 302 338 302 -133 c 0
 302 -154 298 -156 288 -156 c 2
 270 -156 l 6
 261 -156 257 -154 257 -133 c 0
 257 336 214 279 214 301 c 0
 214 311 253 315 253 456 c 0
 253 458 250 459 246 459 c 0x70
 157 459 107 429 93 429 c 0
 82 429 75 446 75 483 c 0xb0
EndSplineSet
EndChar

StartChar: daggerdbl
Encoding: 8225 8225 102
Width: 557
VWidth: 0
Flags: W
HStem: 29 103<100.331 172.556 382.407 456.669> 429 109<77.6988 146.243 398.839 477.056> 459 42<132.298 252.954 301.023 409.892> 650 20G<257.5 283>
VStem: 214 127<249.281 333.298 606.912 665.605> 255 45<-156 55 94 252.572 333.298 458.999 501.068 604.5>
LayerCount: 3
Fore
SplineSet
75 483 m 0xd8
 75 497 75 538 93 538 c 0xd8
 101 538 152 501 243 501 c 0
 249 501 255 502 255 507 c 0
 255 580 215 637 215 651 c 0
 215 662 239 670 276 670 c 0
 290 670 338 670 338 652 c 0
 338 644 300 582 300 506 c 0xb4
 300 502 303 500 306 500 c 0
 381 500 448 540 462 540 c 0
 473 540 480 523 480 486 c 0
 480 472 480 431 462 431 c 0
 454 431 415 459 308 459 c 0
 304 459 301 459 301 455 c 0
 301 325 341 312 341 303 c 0
 341 283 316 317 306 94 c 1
 372 98 430 132 442 132 c 0
 452 132 459 116 459 81 c 0
 459 68 459 29 442 29 c 0
 434 29 399 54 305 55 c 1
 303 4 302 -58 302 -133 c 0
 302 -154 298 -156 288 -156 c 2
 270 -156 l 2
 261 -156 257 -154 257 -133 c 0
 257 -58 256 4 254 55 c 1
 158 54 123 29 115 29 c 0
 98 29 98 68 98 81 c 0
 98 116 105 132 115 132 c 0
 128 132 186 97 252 94 c 1
 241 316 214 284 214 301 c 0
 214 311 253 315 253 456 c 0
 253 458 250 459 246 459 c 0xb8
 157 459 107 429 93 429 c 0
 82 429 75 446 75 483 c 0xd8
EndSplineSet
Layer: 2
SplineSet
92 21 m 4x82
 92 36 92 73 110 73 c 4x82
 118 73 196 44 255 44 c 4
 260 44 264 45 264 49 c 4
 264 174 226 245 226 267 c 4
 226 277 261 288 261 456 c 4
 261 458 259 459 255 459 c 4x52
 184 459 116 429 102 429 c 4
 91 429 84 446 84 483 c 4
 84 497 84 538 102 538 c 4x22
 110 538 166 501 252 501 c 4
 258 501 263 502 263 507 c 4x12
 263 595 223 637 223 651 c 4
 223 662 247 670 284 670 c 4
 298 670 346 670 346 652 c 4x14
 346 644 309 596 309 506 c 4
 309 502 311 500 314 500 c 4
 390 500 456 539 470 539 c 4
 481 539 489 522 489 485 c 4
 489 471 489 430 471 430 c 4
 463 430 407 459 316 459 c 4
 312 459 309 459 309 455 c 4
 309 295 345 274 345 265 c 4
 345 260 309 192 309 50 c 4
 309 47 312 45 316 45 c 4
 396 45 448 75 462 75 c 4
 473 75 481 60 481 22 c 4
 481 7 481 -30 463 -30 c 4
 458 -30 401 -4 323 -4 c 4
 316 -4 309 -4 309 -16 c 4x12
 309 -109 332 -145 332 -159 c 4
 332 -170 325 -178 287 -178 c 4
 272 -178 243 -178 243 -160 c 4x18
 243 -155 263 -92 263 -13 c 4
 263 -8 259 -3 253 -3 c 4x52
 210 -3 125 -32 111 -32 c 4
 100 -32 92 -17 92 21 c 4x82
EndSplineSet
EndChar

StartChar: paragraph
Encoding: 182 182 103
Width: 574
Flags: W
HStem: 620 50<339 412>
VStem: 59 280<348.565 539.523> 288 51<-156 214> 412 49<-156 620>
LayerCount: 3
Fore
SplineSet
59 442 m 0xd0
 59 536 110 614 190 648 c 0
 237 668 281 670 332 670 c 2
 461 670 l 1
 461 -156 l 1
 412 -156 l 1
 412 620 l 1
 339 620 l 1
 339 -156 l 1
 288 -156 l 1
 288 214 l 1xb0
 159 214 59 317 59 442 c 0xd0
EndSplineSet
EndChar

StartChar: section
Encoding: 167 167 104
Width: 520
Flags: W
HStem: -156 45<199.026 317.253> 627 43<207.972 323.222>
VStem: 65 61<285.557 381.372> 88 85<-86.4533 13.0285> 106 76<497.149 595.724> 336 76<521.884 613.602> 344 75<-79.0452 27.9319> 397 58<137.469 228.809>
DStem2: 176 259 136 186 0.766853 -0.641823<-81.1037 242.367> 247 456 163 412 0.761746 -0.647876<-38.7111 283.178>
LayerCount: 3
Fore
SplineSet
88 -34 m 0xd2
 88 -5 100 25 131 25 c 0
 149 25 181 24 181 8 c 0
 181 -3 173 -11 173 -37 c 0xd2
 173 -73 205 -111 258 -111 c 0
 304 -111 344 -79 344 -31 c 0
 344 19 305 51 257 89 c 2
 136 186 l 2
 100 214 65 245 65 304 c 0xe2
 65 358 97 410 139 439 c 1
 118 463 106 494 106 524 c 0
 106 602 179 670 268 670 c 0
 345 670 412 630 412 565 c 0xcc
 412 550 407 523 397 512 c 0xc1
 391 505 383 503 374 503 c 0
 354 503 318 511 318 531 c 0
 318 536 336 551 336 570 c 0xc4
 336 608 306 627 266 627 c 0
 225 627 182 598 182 552 c 0
 182 514 209 487 247 456 c 2
 380 346 l 2
 419 313 455 276 455 214 c 0xc9
 455 161 425 112 382 84 c 1
 406 60 419 25 419 -8 c 0
 419 -84 349 -156 249 -156 c 0
 156 -156 88 -95 88 -34 c 0xd2
397 175 m 0xe1
 397 211 375 231 357 247 c 2
 163 412 l 1
 141 398 126 372 126 342 c 0
 126 300 154 277 176 259 c 2
 360 105 l 1
 384 121 397 149 397 175 c 0xe1
EndSplineSet
Layer: 2
SplineSet
186 8 m 4xe9
 186 -3 173 -11 173 -37 c 4xe9
 173 -73 205 -111 258 -111 c 4
 304 -111 344 -79 344 -31 c 4
 344 19 305 51 257 89 c 6
 136 186 l 6
 100 214 65 245 65 304 c 4xf1
 65 358 97 410 139 439 c 5
 118 463 106 494 106 524 c 4
 106 602 179 670 268 670 c 4
 345 670 412 620 412 560 c 4
 412 529 389 500 356 500 c 4
 343 500 329 504 329 520 c 4
 329 525 336 546 336 565 c 4xe6
 336 603 306 627 266 627 c 4
 225 627 182 598 182 552 c 4
 182 514 209 487 247 456 c 6
 380 346 l 6
 419 313 455 276 455 214 c 4xe480
 455 161 425 112 382 84 c 5
 406 60 419 25 419 -8 c 4
 419 -84 349 -156 249 -156 c 4
 156 -156 88 -95 88 -34 c 4
 88 0 112 30 146 30 c 4
 161 30 186 23 186 8 c 4xe9
397 175 m 4xf080
 397 211 375 231 357 247 c 6
 163 412 l 5
 141 398 126 372 126 342 c 4
 126 300 154 277 176 259 c 6
 360 105 l 5
 384 121 397 149 397 175 c 4xf080
EndSplineSet
EndChar

StartChar: multiply
Encoding: 215 215 105
Width: 527
VWidth: 488
Flags: W
HStem: 173 76<237.625 289.453>
VStem: 226 74<185.547 236.234>
DStem2: 130 376 95 347 0.705945 -0.708267<-15.4149 185.018 237.802 439.726> 97 74 127 42 0.705945 0.708267<-14.7207 187.138 242.646 442.448>
LayerCount: 3
Fore
SplineSet
88 358 m 0
 88 365 107 384 116 384 c 0
 120 384 125 381 130 376 c 2
 246 261 l 2
 252 255 258 249 265 249 c 0
 268 249 272 250 276 254 c 2
 401 379 l 2
 405 383 410 385 413 385 c 0
 420 385 438 367 438 359 c 0
 438 355 435 350 429 344 c 2
 308 223 l 2
 303 218 300 213 300 210 c 0
 300 206 304 202 308 198 c 2
 432 74 l 2
 437 69 438 65 438 62 c 0
 438 54 419 35 412 35 c 0
 409 35 404 37 399 42 c 2
 276 166 l 2
 271 171 267 173 263 173 c 0
 258 173 254 169 247 162 c 2
 127 42 l 2
 122 37 118 35 115 35 c 0
 108 35 89 53 89 61 c 0
 89 65 92 69 97 74 c 2
 217 195 l 2
 223 201 226 206 226 210 c 0
 226 215 223 219 219 223 c 2
 95 347 l 2
 91 351 88 355 88 358 c 0
EndSplineSet
EndChar

StartChar: plusminus
Encoding: 177 177 106
Width: 527
VWidth: 488
Flags: W
HStem: 73 44<31.0236 495.991> 301 45<31.0022 241 285 495.919>
VStem: 241 44<138.05 301 346 509.892>
LayerCount: 3
Fore
SplineSet
31 90 m 0
 31 108 31 117 49 117 c 2
 478 117 l 2
 493 117 496 112 496 97 c 0
 496 82 495 73 475 73 c 2
 48 73 l 2
 37 73 31 75 31 90 c 0
31 324 m 0
 31 336 34 346 49 346 c 2
 230 346 l 2
 239 346 241 350 241 356 c 0
 241 359 241 362 241 365 c 2
 241 495 l 2
 241 506 248 510 257 510 c 0
 281 510 285 507 285 493 c 2
 285 365 l 2
 285 362 285 359 285 357 c 0
 285 351 287 346 297 346 c 2
 480 346 l 2
 489 346 496 344 496 331 c 0
 496 311 496 301 475 301 c 2
 297 301 l 2
 287 301 285 294 285 284 c 2
 285 152 l 2
 285 139 279 138 269 138 c 0
 248 138 241 139 241 152 c 2
 241 284 l 2
 241 297 240 301 225 301 c 2
 48 301 l 2
 31 301 31 309 31 324 c 0
EndSplineSet
EndChar

StartChar: divide
Encoding: 247 247 107
Width: 527
VWidth: 488
Flags: W
HStem: 60 81<222.31 293.681> 188 44<31.0031 495.999> 280 81<217.572 288.681>
VStem: 217 82<65.3547 135.681 288.56 353.256>
LayerCount: 3
Fore
SplineSet
31 212 m 0
 31 225 31 232 49 232 c 2
 480 232 l 2
 496 232 496 225 496 211 c 0
 496 194 496 188 475 188 c 2
 48 188 l 2
 30 188 31 195 31 212 c 0
212 320 m 0
 212 342 232 361 254 361 c 0
 276 361 294 343 294 321 c 0
 294 299 275 280 253 280 c 0
 231 280 212 298 212 320 c 0
217 101 m 0
 217 123 236 141 258 141 c 0
 280 141 299 122 299 100 c 0
 299 78 281 60 259 60 c 0
 237 60 217 78 217 101 c 0
EndSplineSet
EndChar

StartChar: ampersand
Encoding: 38 38 108
Width: 706
VWidth: 0
Flags: WO
HStem: -18 87<209.215 331.478> -18 78<579.575 639.635> 389 71<236.496 274.635> 635 64<224.959 340.926>
VStem: 22 100<158.133 281.039> 144 52<498.995 609.663> 361 69<514.286 613.971> 431 87<136.659 182.569>
LayerCount: 3
Fore
SplineSet
613 427 m 0xbf
 603 396 597 370 583 336 c 0
 563 286 542 238 529 210 c 0
 522 196 518 191 518 184 c 0
 518 178 521 172 529 157 c 0
 547 121 583 60 619 60 c 0
 638 60 656 72 664 85 c 0
 668 92 674 95 679 95 c 0
 687 95 691 88 691 78 c 0
 691 42 631 -18 586 -18 c 0x7f
 518 -18 476 43 459 75 c 0
 453 87 451 90 449 90 c 0
 447 90 443 85 432 73 c 0
 418 58 395 38 364 20 c 0
 321 -5 275 -18 231 -18 c 0
 120 -18 22 58 22 193 c 0
 22 316 137 388 178 410 c 0
 188 415 192 416 192 418 c 0
 192 420 186 423 178 435 c 0
 164 454 144 489 144 535 c 0
 144 623 213 699 303 699 c 0
 365 699 430 653 430 591 c 0
 430 526 385 479 358 457 c 0
 345 447 338 444 338 442 c 0
 338 440 344 438 358 429 c 0
 408 398 439 369 480 256 c 0
 486 239 490 231 493 231 c 0
 497 231 500 240 507 256 c 0
 523 290 548 356 548 423 c 0
 548 432 547 440 545 446 c 0
 532 484 481 466 481 491 c 0
 481 504 491 506 501 506 c 0
 519 506 547 504 584 504 c 0
 611 504 646 506 657 506 c 0
 667 506 677 504 677 491 c 0
 677 473 652 477 630 456 c 0
 623 449 617 440 613 427 c 0xbf
207 382 m 0
 178 363 122 315 122 239 c 0
 122 157 188 69 286 69 c 0xbf
 341 69 372 88 417 115 c 0
 428 121 431 126 431 131 c 0
 431 136 428 142 424 151 c 0
 411 181 395 209 382 235 c 0
 345 311 333 342 245 382 c 0
 235 386 230 389 225 389 c 0
 220 389 215 387 207 382 c 0
280 635 m 0
 234 635 196 605 196 553 c 0
 196 501 242 476 267 464 c 0
 274 461 275 460 277 460 c 0
 279 460 281 461 290 464 c 0
 314 473 361 493 361 561 c 0
 361 605 332 635 280 635 c 0
EndSplineSet
Layer: 2
SplineSet
613 427 m 4x37e0
 603 396 597 370 583 336 c 4
 563 286 542 238 529 210 c 4
 522 196 518 191 518 184 c 4
 518 178 521 172 529 157 c 4
 547 121 583 60 619 60 c 4
 638 60 656 72 664 85 c 4
 668 92 674 95 679 95 c 4
 687 95 691 88 691 78 c 4
 691 42 631 -18 586 -18 c 4x77e0
 518 -18 476 43 459 75 c 4
 453 87 451 90 449 90 c 4
 447 90 443 85 432 73 c 4
 418 58 395 38 364 20 c 4
 321 -5 275 -18 231 -18 c 4
 120 -18 22 58 22 193 c 4
 22 316 137 388 178 410 c 4
 188 415 192 416 192 418 c 4
 192 420 186 423 178 435 c 4
 164 454 144 489 144 535 c 4
 144 623 213 699 303 699 c 4
 365 699 430 653 430 591 c 4
 430 526 385 479 358 457 c 4
 345 447 338 444 338 442 c 4
 338 440 344 438 358 429 c 4
 408 398 439 369 480 256 c 4
 486 239 490 231 493 231 c 4
 497 231 500 240 507 256 c 4
 524 293 548 360 548 433 c 4
 548 463 517 473 496 476 c 4
 488 477 481 482 481 491 c 4
 481 504 491 506 501 506 c 4xafe0
 519 506 547 504 584 504 c 4
 611 504 646 506 657 506 c 4
 667 506 677 504 677 491 c 4
 677 476 664 478 645 467 c 4
 634 461 620 450 613 427 c 4x37e0
207 382 m 4
 178 363 122 315 122 239 c 4
 122 157 188 69 286 69 c 4xa7e0
 341 69 372 88 417 115 c 4
 428 121 431 126 431 131 c 4
 431 136 428 142 424 151 c 4
 411 181 395 209 382 235 c 4
 345 311 333 342 245 382 c 4
 235 386 230 389 225 389 c 4
 220 389 215 387 207 382 c 4
280 635 m 4
 234 635 196 605 196 553 c 4
 196 501 242 476 267 464 c 4
 274 461 275 460 277 460 c 4
 279 460 281 461 290 464 c 4
 314 473 361 493 361 561 c 4
 361 605 332 635 280 635 c 4
EndSplineSet
EndChar

StartChar: at
Encoding: 64 64 109
Width: 989
VWidth: 20
Flags: HW
HStem: -174 36<330.627 580.456> 35 59<311.907 431.325> 35 38<497.5 636.238> 435 26<497.949 584.867> 667 36<459.748 709.898>
VStem: 60 43<77.4651 328.702> 253 84<104.405 220.54> 465 82<52 152.936> 573 115<388 482.5> 892 37<293.641 500.684>
LayerCount: 3
Fore
SplineSet
892 389 m 0xbfc0
 892 583 761 667 586 667 c 0
 330 667 103 469 103 194 c 0
 103 -11 265 -138 443 -138 c 0
 614 -138 725 -75 830 22 c 0
 831 23 843 33 847 33 c 0
 858 33 864 19 864 15 c 0
 864 10 863 5 859 1 c 0
 755 -111 601 -174 439 -174 c 0
 243 -174 60 -43 60 201 c 0
 60 486 323 703 583 703 c 0
 761 703 929 622 929 397 c 0
 929 157 693 35 509 35 c 0
 486 35 465 42 465 62 c 0
 465 80 473 121 473 121 c 1
 473 121 396 38 325 38 c 0
 276 38 253 87 253 141 c 0
 253 224 386 461 565 461 c 0
 582 461 600 454 604 454 c 0
 607 454 610 457 622 472 c 0
 634 487 639 492 656 492 c 0
 672 492 688 489 688 476 c 0
 688 471 686 464 684 459 c 0
 651 389 547 154 547 111 c 0
 547 91 547 73 572 73 c 0
 641 73 732 115 807 190 c 0
 859 242 892 315 892 389 c 0xbfc0
337 151 m 0
 337 122 357 94 389 94 c 0xdfc0
 475 94 573 371 573 405 c 0
 573 424 552 435 533 435 c 0
 471 435 337 287 337 151 c 0
EndSplineSet
EndChar
